<svg xmlns="http://www.w3.org/2000/svg" xmlns:xlink="http://www.w3.org/1999/xlink" version="1.1" width="690" height="630" viewBox="0 0 690 630" xml:space="preserve">
<desc>Created with Fabric.js 3.5.0</desc>
<defs>
</defs>
<rect x="0" y="0" width="100%" height="100%" fill="rgba(255,255,255,0)"/>
<g transform="matrix(0.5944 0 0 1.0535 344.9913 312.7671)" id="991124">
<g style="" vector-effect="non-scaling-stroke">
		<g transform="matrix(1 0 0 1 45.0657 -59.0463)">
<path style="stroke: none; stroke-width: 1; stroke-dasharray: none; stroke-linecap: butt; stroke-dashoffset: 0; stroke-linejoin: miter; stroke-miterlimit: 4; is-custom-font: none; font-file-url: none; fill: rgb(255,184,184); fill-rule: nonzero; opacity: 1;" transform=" translate(-645.0658, -390.9537)" d="M 627.297 436.65058 a 8.03684 8.03684 0 0 1 1.38129 0.413 l 17.46111 -47.37293 l 1.6317 -48.62666 a 12.09185 12.09185 0 0 1 24.1085 -0.87887 l 0 0 a 95.39639 95.39639 0 0 1 -1.45512 29.53985 l -6.66134 32.05791 l -30.413 45.21728 a 8.01612 8.01612 0 1 1 -6.0531 -10.34958 Z" stroke-linecap="round"/>
</g>
		<g transform="matrix(-1 0 0 -1 60.4924 -36.8809)">
<rect style="stroke: none; stroke-width: 1; stroke-dasharray: none; stroke-linecap: butt; stroke-dashoffset: 0; stroke-linejoin: miter; stroke-miterlimit: 4; is-custom-font: none; font-file-url: none; fill: rgb(255,184,184); fill-rule: nonzero; opacity: 1;" x="-22.45165" y="-22.45165" rx="0" ry="0" width="44.9033" height="44.9033"/>
</g>
		<g transform="matrix(1 0 0 1 61.9391 -80.9836)">
<path style="stroke: none; stroke-width: 1; stroke-dasharray: none; stroke-linecap: butt; stroke-dashoffset: 0; stroke-linejoin: miter; stroke-miterlimit: 4; is-custom-font: none; font-file-url: none; fill: rgb(77,3,114); fill-rule: nonzero; opacity: 1;" transform=" translate(-661.9392, -369.0164)" d="M 655.68125 317.69964 l 9.03811 -11.61772 l 12.89268 -0.559 l 1.28678 10.92664 l 6.38829 2.94576 a 171.329 171.329 0 0 1 2.88591 74.22664 l 0 0 v 0 a 6.60917 6.60917 0 0 0 -1.88 6.42 l 0.41415 1.65108 l -0.03832 0.06047 a 9.67164 9.67164 0 0 0 -1.284 7.22047 h 0 l 11.67866 20.75192 c -24.8006 10.10806 -42.98158 -8.74208 -59.82466 -33.44548 l -10.424 -36.083 Z" stroke-linecap="round"/>
</g>
		<g transform="matrix(1 0 0 1 66.0738 -164.5481)">
<circle style="stroke: none; stroke-width: 1; stroke-dasharray: none; stroke-linecap: butt; stroke-dashoffset: 0; stroke-linejoin: miter; stroke-miterlimit: 4; is-custom-font: none; font-file-url: none; fill: rgb(255,184,184); fill-rule: nonzero; opacity: 1;" cx="0" cy="0" r="23.83777"/>
</g>
		<g transform="matrix(1 0 0 1 69.244 -165.1103)">
<path style="stroke: none; stroke-width: 1; stroke-dasharray: none; stroke-linecap: butt; stroke-dashoffset: 0; stroke-linejoin: miter; stroke-miterlimit: 4; is-custom-font: none; font-file-url: none; fill: rgb(47,46,65); fill-rule: nonzero; opacity: 1;" transform=" translate(-669.244, -284.8898)" d="M 669.67106 256.4404 l 2.89212 0.76981 l 0.9822 0.26143 l 11.00626 2.92959 c 9.75543 2.59665 15.2956 13.59859 12.37434 24.57354 c 5.39382 9.35076 0.71988 18.02256 -7.77417 26.4367 a 119.65576 119.65576 0 0 0 -32.82018 0.03946 l 0.1898 -6.30089 l -4.81881 7.082 q -4.12623 0.798 -8.27853 1.94356 c 6.2918 -12.39069 10.93041 -25.18875 11.72056 -35.87915 l -5.04 -1.34153 l 1.4681 -5.51557 l -3.179 5.06017 l -9.1372 -2.43209 l 0 0 A 24.857 24.857 0 0 1 669.67106 256.4404 Z" stroke-linecap="round"/>
</g>
		<g transform="matrix(1 0 0 1 89.9866 -190.0517)">
<circle style="stroke: none; stroke-width: 1; stroke-dasharray: none; stroke-linecap: butt; stroke-dashoffset: 0; stroke-linejoin: miter; stroke-miterlimit: 4; is-custom-font: none; font-file-url: none; fill: rgb(47,46,65); fill-rule: nonzero; opacity: 1;" cx="0" cy="0" r="11.22582"/>
</g>
		<g transform="matrix(1 0 0 1 60.9013 -55.0125)">
<path style="stroke: none; stroke-width: 1; stroke-dasharray: none; stroke-linecap: butt; stroke-dashoffset: 0; stroke-linejoin: miter; stroke-miterlimit: 4; is-custom-font: none; font-file-url: none; fill: rgb(255,184,184); fill-rule: nonzero; opacity: 1;" transform=" translate(-660.9014, -394.9875)" d="M 650.29229 442.87116 a 8.038 8.038 0 0 1 1.43533 0.13537 l 7.87764 -49.87011 l -7.892 -48.00969 a 12.09184 12.09184 0 0 1 23.47313 -5.56813 v 0 a 95.39624 95.39624 0 0 1 4.33927 29.25562 l -0.27525 32.74152 L 658.24926 451.84 a 8.01612 8.01612 0 1 1 -7.957 -8.96887 Z" stroke-linecap="round"/>
</g>
		<g transform="matrix(1 0 0 1 64.7194 -90.642)">
<path style="stroke: none; stroke-width: 1; stroke-dasharray: none; stroke-linecap: butt; stroke-dashoffset: 0; stroke-linejoin: miter; stroke-miterlimit: 4; is-custom-font: none; font-file-url: none; fill: rgb(77,3,114); fill-rule: nonzero; opacity: 1;" transform=" translate(-664.7194, -359.358)" d="M 679.52906 389.6009 l -21.46541 1.06657 l -12.36088 -43.60235 a 19.01659 19.01659 0 1 1 38.03318 0 Z" stroke-linecap="round"/>
</g>
		<g transform="matrix(1 0 0 1 -49.2497 -55.0428)">
<path style="stroke: none; stroke-width: 1; stroke-dasharray: none; stroke-linecap: butt; stroke-dashoffset: 0; stroke-linejoin: miter; stroke-miterlimit: 4; is-custom-font: none; font-file-url: none; fill: rgb(255,182,182); fill-rule: nonzero; opacity: 1;" transform=" translate(-550.7503, -394.9572)" d="M 569.59011 399.029 a 8.66833 8.66833 0 0 0 -12.90239 -3.19426 l -25.32227 -17.54122 L 531 394.29689 l 24.10248 14.204 a 8.71533 8.71533 0 0 0 14.48761 -9.47189 Z" stroke-linecap="round"/>
</g>
		<g transform="matrix(1 0 0 1 -77.3279 -94.7587)">
<path style="stroke: none; stroke-width: 1; stroke-dasharray: none; stroke-linecap: butt; stroke-dashoffset: 0; stroke-linejoin: miter; stroke-miterlimit: 4; is-custom-font: none; font-file-url: none; fill: rgb(77,3,114); fill-rule: nonzero; opacity: 1;" transform=" translate(-522.6721, -355.2414)" d="M 545.49515 404.28144 l -48.71236 -27.11908 l -0.01337 -0.23715 c -0.02583 -0.4535 -2.5587 -45.49286 -1.56416 -55.105 a 25.58552 25.58552 0 0 1 7.12513 -15.45407 l 0.10648 -0.09753 l 0.144 -0.01369 a 12.98383 12.98383 0 0 1 13.538 8.96833 a 91.968 91.968 0 0 1 3.09279 42.075 l -1.28539 8.00483 l 32.44408 24.65809 Z" stroke-linecap="round"/>
</g>
		<g transform="matrix(1 0 0 1 -91.8853 -180.287)">
<circle style="stroke: none; stroke-width: 1; stroke-dasharray: none; stroke-linecap: butt; stroke-dashoffset: 0; stroke-linejoin: miter; stroke-miterlimit: 4; is-custom-font: none; font-file-url: none; fill: rgb(255,182,182); fill-rule: nonzero; opacity: 1;" cx="0" cy="0" r="21.12584"/>
</g>
		<g transform="matrix(1 0 0 1 -91.1349 -182.8276)">
<path style="stroke: none; stroke-width: 1; stroke-dasharray: none; stroke-linecap: butt; stroke-dashoffset: 0; stroke-linejoin: miter; stroke-miterlimit: 4; is-custom-font: none; font-file-url: none; fill: rgb(47,46,65); fill-rule: nonzero; opacity: 1;" transform=" translate(-508.8651, -267.1724)" d="M 508.81361 289.92172 c -4.9392 2.36991 -11.01868 1.5672 -15.73436 -1.22107 s -8.186 -7.33559 -10.61119 -12.24789 c -1.77615 -3.59766 -3.06658 -7.7177 -2.03794 -11.59581 s 5.1317 -7.12756 8.976 -5.97888 c -2.6337 -2.12069 -2.32668 -6.494 -0.19852 -9.12167 s 5.48583 -3.89117 8.73033 -4.84348 c 4.70867 -1.38207 9.65641 -2.35758 14.51253 -1.65065 s 9.63727 3.33605 11.92235 7.67888 a 7.40263 7.40263 0 0 0 8.31715 -3.57189 a 6.70663 6.70663 0 0 1 -2.3056 7.82435 l 6.57685 -3.56825 c 1.67654 2.324 0.15309 5.86851 -2.39223 7.185 s -5.622 0.96535 -8.39992 0.26193 s -6.39667 0.85306 -9.26176 0.90954 s -5.96443 1.55593 -6.78472 4.30165 c -0.42963 1.43812 -0.17921 2.98247 -0.306 4.478 s -0.84332 3.15476 -2.29279 3.54437 c -0.91578 0.24615 -1.91768 -0.08 -2.82571 0.19335 a 3.0317 3.0317 0 0 0 -1.911 2.71444 a 8.901 8.901 0 0 0 0.631 3.44479 c 1.43351 4.4192 3.72905 6.25231 5.16256 10.6715" stroke-linecap="round"/>
</g>
		<g transform="matrix(1 0 0 1 -101.5742 -85.6312)">
<path style="stroke: none; stroke-width: 1; stroke-dasharray: none; stroke-linecap: butt; stroke-dashoffset: 0; stroke-linejoin: miter; stroke-miterlimit: 4; is-custom-font: none; font-file-url: none; fill: rgb(77,3,114); fill-rule: nonzero; opacity: 1;" transform=" translate(-498.4258, -364.3688)" d="M 478.40636 429.51888 l -0.01192 -0.00133 l -0.167 -0.02848 l -0.04832 -0.16239 c -0.60737 -2.04293 -1.38025 -4.134 -2.12771 -6.15646 a 74.23272 74.23272 0 0 1 -2.78326 -8.57952 a 65.71116 65.71116 0 0 1 -1.23011 -8.44562 c -0.20851 -2.061 -0.42414 -4.19233 -0.79079 -6.29036 a 3.85294 3.85294 0 0 1 1.05081 -2.66693 a 3.53162 3.53162 0 0 0 0.96609 -2.245 a 5.3414 5.3414 0 0 0 -1.68886 -2.28438 a 5.50434 5.50434 0 0 1 -1.85271 -2.62753 a 261.76111 261.76111 0 0 1 -2.35852 -37.70833 c 0.175 -17.44683 0.9635 -29.33884 2.34342 -35.34622 c 3.71054 -16.15276 20.85349 -19.10054 23.53679 -19.46446 a 5.92519 5.92519 0 0 1 8.01355 -3.30477 l 12.18033 5.57584 a 19.8297 19.8297 0 0 1 10.54312 11.77489 l 1.80945 5.5162 l 0.90632 37.03 l -5.02266 26.0764 L 529.5 418.76772 C 477.19652 447.48362 478.5748 429.51888 478.40636 429.51888 Z" stroke-linecap="round"/>
</g>
		<g transform="matrix(1 0 0 1 -70.6609 -43.8881)">
<path style="stroke: none; stroke-width: 1; stroke-dasharray: none; stroke-linecap: butt; stroke-dashoffset: 0; stroke-linejoin: miter; stroke-miterlimit: 4; is-custom-font: none; font-file-url: none; fill: rgb(255,182,182); fill-rule: nonzero; opacity: 1;" transform=" translate(-529.3391, -406.1119)" d="M 547.78076 413.91219 a 8.66832 8.66832 0 0 0 -12.18682 -5.30626 l -22.03347 -21.52762 l -3.0357 15.71711 l 21.38875 18.03343 a 8.71533 8.71533 0 0 0 15.86719 -6.91663 Z" stroke-linecap="round"/>
</g>
		<g transform="matrix(1 0 0 1 -94.9995 -86.8531)">
<path style="stroke: none; stroke-width: 1; stroke-dasharray: none; stroke-linecap: butt; stroke-dashoffset: 0; stroke-linejoin: miter; stroke-miterlimit: 4; is-custom-font: none; font-file-url: none; fill: rgb(77,3,114); fill-rule: nonzero; opacity: 1;" transform=" translate(-505.0005, -363.1468)" d="M 523.14679 415.06269 l -43.49321 -34.88092 l 0.02646 -0.236 c 0.05035 -0.45145 5.08257 -45.28041 7.67 -54.591 a 25.58559 25.58559 0 0 1 9.6084 -14.04545 l 0.12128 -0.07835 l 0.14427 0.01057 a 12.98387 12.98387 0 0 1 11.84822 11.10534 a 91.968 91.968 0 0 1 -3.98462 41.99992 L 502.4821 372.024 L 530.3474 401.759 Z" stroke-linecap="round"/>
</g>
		<g transform="matrix(1 0 0 1 -294.7772 102.2916)">
<path style="stroke: none; stroke-width: 1; stroke-dasharray: none; stroke-linecap: butt; stroke-dashoffset: 0; stroke-linejoin: miter; stroke-miterlimit: 4; is-custom-font: none; font-file-url: none; fill: rgb(255,182,182); fill-rule: nonzero; opacity: 1;" transform=" translate(-305.2228, -552.2916)" d="M 327.07815 557.015 a 10.05575 10.05575 0 0 0 -14.96749 -3.70552 l -29.37526 -20.3488 l -0.424 18.56486 L 310.27166 568.003 a 10.11027 10.11027 0 0 0 16.80644 -10.98792 Z" stroke-linecap="round"/>
</g>
		<g transform="matrix(1 0 0 1 -327.3493 56.219)">
<path style="stroke: none; stroke-width: 1; stroke-dasharray: none; stroke-linecap: butt; stroke-dashoffset: 0; stroke-linejoin: miter; stroke-miterlimit: 4; is-custom-font: none; font-file-url: none; fill: rgb(77,3,114); fill-rule: nonzero; opacity: 1;" transform=" translate(-272.6507, -506.219)" d="M 299.12665 563.10819 l -56.50906 -31.45965 l -0.01551 -0.2751 c -0.03 -0.52609 -2.96823 -52.77426 -1.81452 -63.92488 a 29.68071 29.68071 0 0 1 8.26556 -17.92759 l 0.12352 -0.11314 l 0.16706 -0.01588 a 15.062 15.062 0 0 1 15.70485 10.40376 a 106.688 106.688 0 0 1 3.5878 48.80935 l -1.49112 9.286 l 37.63695 28.60476 Z" stroke-linecap="round"/>
</g>
		<g transform="matrix(1 0 0 1 -219.0776 209.2876)">
<polygon style="stroke: none; stroke-width: 1; stroke-dasharray: none; stroke-linecap: butt; stroke-dashoffset: 0; stroke-linejoin: miter; stroke-miterlimit: 4; is-custom-font: none; font-file-url: none; fill: rgb(255,182,182); fill-rule: nonzero; opacity: 1;" points="3.569,24.4085 14.439,19.7395 1.604,-24.4085 -14.439,-17.5175 3.569,24.4085 "/>
</g>
		<g transform="matrix(1 0 0 1 -199.4353 233.5906)">
<path style="stroke: none; stroke-width: 1; stroke-dasharray: none; stroke-linecap: butt; stroke-dashoffset: 0; stroke-linejoin: miter; stroke-miterlimit: 4; is-custom-font: none; font-file-url: none; fill: rgb(47,46,65); fill-rule: nonzero; opacity: 1;" transform=" translate(-400.5647, -683.5907)" d="M 376.8279 681.98316 l 3.53409 -1.518 l 11.388 -11.53711 l 9.80478 2.43437 l 0.001 -0.00043 a 17.1509 17.1509 0 0 1 22.52577 8.99022 l 0.21993 0.51207 l -40.48508 17.389 Z" stroke-linecap="round"/>
</g>
		<g transform="matrix(1 0 0 1 -255.6796 212.0186)">
<polygon style="stroke: none; stroke-width: 1; stroke-dasharray: none; stroke-linecap: butt; stroke-dashoffset: 0; stroke-linejoin: miter; stroke-miterlimit: 4; is-custom-font: none; font-file-url: none; fill: rgb(255,182,182); fill-rule: nonzero; opacity: 1;" points="-8.728,22.8155 3.102,22.8145 8.73,-22.8155 -8.73,-22.8155 -8.728,22.8155 "/>
</g>
		<g transform="matrix(1 0 0 1 -248.7426 236.036)">
<path style="stroke: none; stroke-width: 1; stroke-dasharray: none; stroke-linecap: butt; stroke-dashoffset: 0; stroke-linejoin: miter; stroke-miterlimit: 4; is-custom-font: none; font-file-url: none; fill: rgb(47,46,65); fill-rule: nonzero; opacity: 1;" transform=" translate(-351.2574, -686.036)" d="M 329.22618 680.23573 l 3.8463 -0.00016 l 15.01657 -6.10689 l 8.04842 6.106 h 0.00109 a 17.15089 17.15089 0 0 1 17.15 17.14971 v 0.55731 l -44.06154 0.00163 Z" stroke-linecap="round"/>
</g>
		<g transform="matrix(1 0 0 1 -331.087 203.5586)">
<rect style="stroke: none; stroke-width: 1; stroke-dasharray: none; stroke-linecap: butt; stroke-dashoffset: 0; stroke-linejoin: miter; stroke-miterlimit: 4; is-custom-font: none; font-file-url: none; fill: rgb(202,202,202); fill-rule: nonzero; opacity: 1;" x="-10.52355" y="-17.4391" rx="0" ry="0" width="21.0471" height="34.8782"/>
</g>
		<g transform="matrix(0.5615 -0.8275 0.8275 0.5615 -297.7121 223.7038)">
<rect style="stroke: none; stroke-width: 1; stroke-dasharray: none; stroke-linecap: butt; stroke-dashoffset: 0; stroke-linejoin: miter; stroke-miterlimit: 4; is-custom-font: none; font-file-url: none; fill: rgb(202,202,202); fill-rule: nonzero; opacity: 1;" x="-2.4055" y="-30.52245" rx="0" ry="0" width="4.811" height="61.0449"/>
</g>
		<g transform="matrix(0.8275 -0.5615 0.5615 0.8275 -364.4617 223.7039)">
<rect style="stroke: none; stroke-width: 1; stroke-dasharray: none; stroke-linecap: butt; stroke-dashoffset: 0; stroke-linejoin: miter; stroke-miterlimit: 4; is-custom-font: none; font-file-url: none; fill: rgb(202,202,202); fill-rule: nonzero; opacity: 1;" x="-30.52245" y="-2.4055" rx="0" ry="0" width="61.0449" height="4.811"/>
</g>
		<g transform="matrix(1 0 0 1 -272.4556 240.8423)">
<circle style="stroke: none; stroke-width: 1; stroke-dasharray: none; stroke-linecap: butt; stroke-dashoffset: 0; stroke-linejoin: miter; stroke-miterlimit: 4; is-custom-font: none; font-file-url: none; fill: rgb(202,202,202); fill-rule: nonzero; opacity: 1;" cx="0" cy="0" r="6.61481"/>
</g>
		<g transform="matrix(1 0 0 1 -331.3876 240.8423)">
<circle style="stroke: none; stroke-width: 1; stroke-dasharray: none; stroke-linecap: butt; stroke-dashoffset: 0; stroke-linejoin: miter; stroke-miterlimit: 4; is-custom-font: none; font-file-url: none; fill: rgb(202,202,202); fill-rule: nonzero; opacity: 1;" cx="0" cy="0" r="6.61481"/>
</g>
		<g transform="matrix(1 0 0 1 -389.7183 240.8423)">
<circle style="stroke: none; stroke-width: 1; stroke-dasharray: none; stroke-linecap: butt; stroke-dashoffset: 0; stroke-linejoin: miter; stroke-miterlimit: 4; is-custom-font: none; font-file-url: none; fill: rgb(202,202,202); fill-rule: nonzero; opacity: 1;" cx="0" cy="0" r="6.61481"/>
</g>
		<g transform="matrix(1 0 0 1 -331.3876 223.7039)">
<rect style="stroke: none; stroke-width: 1; stroke-dasharray: none; stroke-linecap: butt; stroke-dashoffset: 0; stroke-linejoin: miter; stroke-miterlimit: 4; is-custom-font: none; font-file-url: none; fill: rgb(202,202,202); fill-rule: nonzero; opacity: 1;" x="-2.4054" y="-17.1384" rx="0" ry="0" width="4.8108" height="34.2768"/>
</g>
		<g transform="matrix(1 0 0 1 -331.0869 178.6029)">
<rect style="stroke: none; stroke-width: 1; stroke-dasharray: none; stroke-linecap: butt; stroke-dashoffset: 0; stroke-linejoin: miter; stroke-miterlimit: 4; is-custom-font: none; font-file-url: none; fill: rgb(202,202,202); fill-rule: nonzero; opacity: 1;" x="-4.5101" y="-23.1519" rx="0" ry="0" width="9.0202" height="46.3038"/>
</g>
		<g transform="matrix(1 0 0 1 -334.2829 157.255)">
<path style="stroke: none; stroke-width: 1; stroke-dasharray: none; stroke-linecap: butt; stroke-dashoffset: 0; stroke-linejoin: miter; stroke-miterlimit: 4; is-custom-font: none; font-file-url: none; fill: rgb(63,61,86); fill-rule: nonzero; opacity: 1;" transform=" translate(-265.7171, -607.255)" d="M 223.05515 612.66709 V 601.84281 A 7.52531 7.52531 0 0 1 230.572 594.326 h 70.29029 a 7.52535 7.52535 0 0 1 7.51684 7.51684 v 10.82428 a 7.52535 7.52535 0 0 1 -7.51684 7.51685 H 230.572 A 7.52532 7.52532 0 0 1 223.05515 612.66709 Z" stroke-linecap="round"/>
</g>
		<g transform="matrix(1 0 0 1 -322.3211 248.3262)">
<path style="stroke: none; stroke-width: 1; stroke-dasharray: none; stroke-linecap: butt; stroke-dashoffset: 0; stroke-linejoin: miter; stroke-miterlimit: 4; is-custom-font: none; font-file-url: none; fill: rgb(0,8,34); fill-rule: nonzero; opacity: 1;" transform=" translate(-277.6789, -698.3262)" d="M 532.82486 699.51688 H 22.53086 a 1.19069 1.19069 0 0 1 0 -2.38134 h 510.294 a 1.19068 1.19068 0 0 1 0 2.38134 Z" stroke-linecap="round"/>
</g>
		<g transform="matrix(1 0 0 1 -295.0745 154.0312)">
<path style="stroke: none; stroke-width: 1; stroke-dasharray: none; stroke-linecap: butt; stroke-dashoffset: 0; stroke-linejoin: miter; stroke-miterlimit: 4; is-custom-font: none; font-file-url: none; fill: rgb(47,46,65); fill-rule: nonzero; opacity: 1;" transform=" translate(-304.9255, -604.0312)" d="M 213.5 540.76772 l 51 1 l 1.851 14.527 s 89.149 -4.527 97 14 c 17.67886 41.71879 33 90 33 90 l -22 7 l -43 -72 s -119.851 35.473 -110.851 -24.527 Z" stroke-linecap="round"/>
</g>
		<g transform="matrix(1 0 0 1 -250.9369 176.3586)">
<path style="stroke: none; stroke-width: 1; stroke-dasharray: none; stroke-linecap: butt; stroke-dashoffset: 0; stroke-linejoin: miter; stroke-miterlimit: 4; is-custom-font: none; font-file-url: none; fill: rgb(47,46,65); fill-rule: nonzero; opacity: 1;" transform=" translate(-349.0631, -626.3586)" d="M 367.77506 583.17344 c -5.23261 45.0069 -16.424 87.12128 -16.424 87.12128 l -21 -3 l 4.783 -84.8722" stroke-linecap="round"/>
</g>
		<g transform="matrix(1 0 0 1 -344.2367 -42.9986)">
<circle style="stroke: none; stroke-width: 1; stroke-dasharray: none; stroke-linecap: butt; stroke-dashoffset: 0; stroke-linejoin: miter; stroke-miterlimit: 4; is-custom-font: none; font-file-url: none; fill: rgb(255,182,182); fill-rule: nonzero; opacity: 1;" cx="0" cy="0" r="24.50716"/>
</g>
		<g transform="matrix(1 0 0 1 -343.3662 -45.946)">
<path style="stroke: none; stroke-width: 1; stroke-dasharray: none; stroke-linecap: butt; stroke-dashoffset: 0; stroke-linejoin: miter; stroke-miterlimit: 4; is-custom-font: none; font-file-url: none; fill: rgb(47,46,65); fill-rule: nonzero; opacity: 1;" transform=" translate(-256.6338, -404.0541)" d="M 256.574 430.44453 c -5.72974 2.74923 -12.78228 1.818 -18.25273 -1.41652 s -9.49623 -8.50969 -12.30958 -14.20823 c -2.06043 -4.17348 -3.55741 -8.953 -2.36412 -13.45179 s 5.95306 -8.26837 10.41262 -6.93583 c -3.05523 -2.46012 -2.69908 -7.53342 -0.23029 -10.58165 s 6.36388 -4.514 10.12768 -5.61871 c 5.46232 -1.60328 11.202 -2.73492 16.83534 -1.91485 s 11.17977 3.87 13.83059 8.90793 a 8.58746 8.58746 0 0 0 9.64836 -4.14358 a 7.78008 7.78008 0 0 1 -2.67462 9.07668 l 7.62951 -4.13937 c 1.94488 2.696 0.1776 6.8078 -2.77512 8.335 s -6.52179 1.11986 -9.74438 0.30384 s 0.5795 5.98961 -2.74415 6.05513 s -6.91908 1.805 -7.87066 4.99016 c -0.4984 1.66829 -0.2079 3.45982 -0.355 5.19475 s -0.9783 3.6597 -2.65977 4.11167 c -1.06235 0.28555 -2.22461 -0.09276 -3.278 0.2243 a 3.51693 3.51693 0 0 0 -2.21686 3.14891 a 10.32551 10.32551 0 0 0 0.732 3.99614 c 1.66295 5.12651 -3.6741 2.253 -2.01114 7.37954" stroke-linecap="round"/>
</g>
		<g transform="matrix(1 0 0 1 -354.3232 63.5885)">
<path style="stroke: none; stroke-width: 1; stroke-dasharray: none; stroke-linecap: butt; stroke-dashoffset: 0; stroke-linejoin: miter; stroke-miterlimit: 4; is-custom-font: none; font-file-url: none; fill: rgb(77,3,114); fill-rule: nonzero; opacity: 1;" transform=" translate(-245.6767, -513.5885)" d="M 221.2999 592.385 l -0.01382 -0.00154 l -0.19378 -0.03305 l -0.056 -0.18838 c -0.70458 -2.3699 -1.60117 -4.7957 -2.46827 -7.14183 a 86.11847 86.11847 0 0 1 -3.22874 -9.95272 a 76.22922 76.22922 0 0 1 -1.427 -9.7974 c -0.24188 -2.3909 -0.492 -4.86333 -0.91735 -7.29716 c -0.18885 -1.08057 0.52685 -2.104 1.219 -3.09378 c 0.64174 -0.91752 1.248 -1.78438 1.12072 -2.6043 c -0.13009 -0.83846 -1.05995 -1.75937 -1.95917 -2.65 c -0.98568 -0.97619 -2.005 -1.98573 -2.14925 -3.04808 a 303.65548 303.65548 0 0 1 -2.736 -43.74377 c 0.203 -20.23929 1.11771 -34.0347 2.71849 -41.00359 c 4.30444 -18.73811 24.19121 -22.1577 27.304 -22.57986 a 6.87358 6.87358 0 0 1 9.29617 -3.83372 l 14.12986 6.46829 a 23.00355 23.00355 0 0 1 12.23061 13.65952 l 2.09906 6.39911 l 1.05139 42.95689 l -5.82658 30.25008 l 11.38443 17.07665 C 222.20264 585.53844 221.49531 592.385 221.2999 592.385 Z" stroke-linecap="round"/>
</g>
		<g transform="matrix(1 0 0 1 344.2325 64.4197)">
<path style="stroke: none; stroke-width: 1; stroke-dasharray: none; stroke-linecap: butt; stroke-dashoffset: 0; stroke-linejoin: miter; stroke-miterlimit: 4; is-custom-font: none; font-file-url: none; fill: rgb(255,184,184); fill-rule: nonzero; opacity: 1;" transform=" translate(-944.2325, -514.4197)" d="M 926.46371 560.11661 a 8.03722 8.03722 0 0 1 1.3813 0.41295 l 17.46111 -47.37293 l 1.6317 -48.62666 a 12.09184 12.09184 0 0 1 24.10849 -0.87887 l 0 0 a 95.39579 95.39579 0 0 1 -1.45512 29.53985 l -6.66134 32.05791 l -30.413 45.21728 a 8.01612 8.01612 0 1 1 -6.05311 -10.34958 Z" stroke-linecap="round"/>
</g>
		<g transform="matrix(-1 0 0 -1 359.659 86.5851)">
<rect style="stroke: none; stroke-width: 1; stroke-dasharray: none; stroke-linecap: butt; stroke-dashoffset: 0; stroke-linejoin: miter; stroke-miterlimit: 4; is-custom-font: none; font-file-url: none; fill: rgb(255,184,184); fill-rule: nonzero; opacity: 1;" x="-22.45165" y="-22.45165" rx="0" ry="0" width="44.9033" height="44.9033"/>
</g>
		<g transform="matrix(1 0 0 1 217.3699 215.9016)">
<polygon style="stroke: none; stroke-width: 1; stroke-dasharray: none; stroke-linecap: butt; stroke-dashoffset: 0; stroke-linejoin: miter; stroke-miterlimit: 4; is-custom-font: none; font-file-url: none; fill: rgb(255,182,182); fill-rule: nonzero; opacity: 1;" points="13.3495,-19.5245 -3.7995,-25.2945 -13.3495,21.3855 -1.7295,25.2945 13.3495,-19.5245 "/>
</g>
		<g transform="matrix(1 0 0 1 257.7694 211.9161)">
<polygon style="stroke: none; stroke-width: 1; stroke-dasharray: none; stroke-linecap: butt; stroke-dashoffset: 0; stroke-linejoin: miter; stroke-miterlimit: 4; is-custom-font: none; font-file-url: none; fill: rgb(255,182,182); fill-rule: nonzero; opacity: 1;" points="3.363,-24.42 -14.245,-20.256 2.314,24.42 14.245,21.598 3.363,-24.42 "/>
</g>
		<g transform="matrix(1 0 0 1 331.0869 203.5586)">
<rect style="stroke: none; stroke-width: 1; stroke-dasharray: none; stroke-linecap: butt; stroke-dashoffset: 0; stroke-linejoin: miter; stroke-miterlimit: 4; is-custom-font: none; font-file-url: none; fill: rgb(202,202,202); fill-rule: nonzero; opacity: 1;" x="-10.52355" y="-17.4391" rx="0" ry="0" width="21.0471" height="34.8782"/>
</g>
		<g transform="matrix(0.8275 -0.5615 0.5615 0.8275 297.712 223.7039)">
<rect style="stroke: none; stroke-width: 1; stroke-dasharray: none; stroke-linecap: butt; stroke-dashoffset: 0; stroke-linejoin: miter; stroke-miterlimit: 4; is-custom-font: none; font-file-url: none; fill: rgb(202,202,202); fill-rule: nonzero; opacity: 1;" x="-30.52245" y="-2.4055" rx="0" ry="0" width="61.0449" height="4.811"/>
</g>
		<g transform="matrix(0.5615 -0.8275 0.8275 0.5615 364.4617 223.7038)">
<rect style="stroke: none; stroke-width: 1; stroke-dasharray: none; stroke-linecap: butt; stroke-dashoffset: 0; stroke-linejoin: miter; stroke-miterlimit: 4; is-custom-font: none; font-file-url: none; fill: rgb(202,202,202); fill-rule: nonzero; opacity: 1;" x="-2.4055" y="-30.52245" rx="0" ry="0" width="4.811" height="61.0449"/>
</g>
		<g transform="matrix(1 0 0 1 272.4555 240.8423)">
<circle style="stroke: none; stroke-width: 1; stroke-dasharray: none; stroke-linecap: butt; stroke-dashoffset: 0; stroke-linejoin: miter; stroke-miterlimit: 4; is-custom-font: none; font-file-url: none; fill: rgb(202,202,202); fill-rule: nonzero; opacity: 1;" cx="0" cy="0" r="6.61481"/>
</g>
		<g transform="matrix(1 0 0 1 331.3876 240.8423)">
<circle style="stroke: none; stroke-width: 1; stroke-dasharray: none; stroke-linecap: butt; stroke-dashoffset: 0; stroke-linejoin: miter; stroke-miterlimit: 4; is-custom-font: none; font-file-url: none; fill: rgb(202,202,202); fill-rule: nonzero; opacity: 1;" cx="0" cy="0" r="6.61481"/>
</g>
		<g transform="matrix(1 0 0 1 389.7183 240.8423)">
<circle style="stroke: none; stroke-width: 1; stroke-dasharray: none; stroke-linecap: butt; stroke-dashoffset: 0; stroke-linejoin: miter; stroke-miterlimit: 4; is-custom-font: none; font-file-url: none; fill: rgb(202,202,202); fill-rule: nonzero; opacity: 1;" cx="0" cy="0" r="6.61481"/>
</g>
		<g transform="matrix(1 0 0 1 331.3876 223.7039)">
<rect style="stroke: none; stroke-width: 1; stroke-dasharray: none; stroke-linecap: butt; stroke-dashoffset: 0; stroke-linejoin: miter; stroke-miterlimit: 4; is-custom-font: none; font-file-url: none; fill: rgb(202,202,202); fill-rule: nonzero; opacity: 1;" x="-2.4054" y="-17.1384" rx="0" ry="0" width="4.8108" height="34.2768"/>
</g>
		<g transform="matrix(1 0 0 1 331.0869 178.6029)">
<rect style="stroke: none; stroke-width: 1; stroke-dasharray: none; stroke-linecap: butt; stroke-dashoffset: 0; stroke-linejoin: miter; stroke-miterlimit: 4; is-custom-font: none; font-file-url: none; fill: rgb(202,202,202); fill-rule: nonzero; opacity: 1;" x="-4.5101" y="-23.1519" rx="0" ry="0" width="9.0202" height="46.3038"/>
</g>
		<g transform="matrix(1 0 0 1 334.2829 157.255)">
<path style="stroke: none; stroke-width: 1; stroke-dasharray: none; stroke-linecap: butt; stroke-dashoffset: 0; stroke-linejoin: miter; stroke-miterlimit: 4; is-custom-font: none; font-file-url: none; fill: rgb(63,61,86); fill-rule: nonzero; opacity: 1;" transform=" translate(-934.2829, -607.255)" d="M 969.428 620.18394 H 899.13772 a 7.52535 7.52535 0 0 1 -7.51684 -7.51685 V 601.84281 a 7.52535 7.52535 0 0 1 7.51684 -7.51684 H 969.428 a 7.52531 7.52531 0 0 1 7.51684 7.51684 v 10.82428 A 7.52532 7.52532 0 0 1 969.428 620.18394 Z" stroke-linecap="round"/>
</g>
		<g transform="matrix(1 0 0 1 296.0745 154.0312)">
<path style="stroke: none; stroke-width: 1; stroke-dasharray: none; stroke-linecap: butt; stroke-dashoffset: 0; stroke-linejoin: miter; stroke-miterlimit: 4; is-custom-font: none; font-file-url: none; fill: rgb(47,46,65); fill-rule: nonzero; opacity: 1;" transform=" translate(-896.0745, -604.0312)" d="M 980.5 570.76772 c 9 60 -110.851 24.527 -110.851 24.527 l -43 72 l -22 -7 s 15.32114 -48.28121 33 -90 c 7.851 -18.527 97 -14 97 -14 l 1.851 -14.527 l 51 -1 Z" stroke-linecap="round"/>
</g>
		<g transform="matrix(1 0 0 1 251.9369 176.3586)">
<path style="stroke: none; stroke-width: 1; stroke-dasharray: none; stroke-linecap: butt; stroke-dashoffset: 0; stroke-linejoin: miter; stroke-miterlimit: 4; is-custom-font: none; font-file-url: none; fill: rgb(47,46,65); fill-rule: nonzero; opacity: 1;" transform=" translate(-851.9369, -626.3586)" d="M 865.86593 582.42252 l 4.783 84.8722 l -21 3 s -11.1914 -42.11438 -16.424 -87.12128" stroke-linecap="round"/>
</g>
		<g transform="matrix(1 0 0 1 361.1058 42.4824)">
<path style="stroke: none; stroke-width: 1; stroke-dasharray: none; stroke-linecap: butt; stroke-dashoffset: 0; stroke-linejoin: miter; stroke-miterlimit: 4; is-custom-font: none; font-file-url: none; fill: rgb(77,3,114); fill-rule: nonzero; opacity: 1;" transform=" translate(-961.1059, -492.4824)" d="M 954.84794 441.16567 l 9.03812 -11.61772 l 12.89267 -0.559 l 1.28679 10.92664 l 6.38828 2.94576 a 171.329 171.329 0 0 1 2.88591 74.22664 l 0 0 v 0 a 6.60919 6.60919 0 0 0 -1.88 6.42 l 0.41415 1.65108 l -0.03832 0.06047 a 9.67173 9.67173 0 0 0 -1.284 7.22047 h 0 l 11.67866 20.75192 c -24.80059 10.10806 -42.98157 -8.74208 -59.82466 -33.44548 l -10.424 -36.083 Z" stroke-linecap="round"/>
</g>
		<g transform="matrix(1 0 0 1 342.0644 21.8771)">
<polygon style="stroke: none; stroke-width: 1; stroke-dasharray: none; stroke-linecap: butt; stroke-dashoffset: 0; stroke-linejoin: miter; stroke-miterlimit: 4; is-custom-font: none; font-file-url: none; fill: rgb(47,46,65); fill-rule: nonzero; opacity: 1;" points="-14.388,36.09 -16.822,11.747 15.493,-36.09 16.822,-35.193 -15.169,12.164 -12.792,35.931 -14.388,36.09 "/>
</g>
		<g transform="matrix(1 0 0 1 365.2405 -41.082)">
<circle style="stroke: none; stroke-width: 1; stroke-dasharray: none; stroke-linecap: butt; stroke-dashoffset: 0; stroke-linejoin: miter; stroke-miterlimit: 4; is-custom-font: none; font-file-url: none; fill: rgb(255,184,184); fill-rule: nonzero; opacity: 1;" cx="0" cy="0" r="23.83777"/>
</g>
		<g transform="matrix(1 0 0 1 368.4107 -41.6442)">
<path style="stroke: none; stroke-width: 1; stroke-dasharray: none; stroke-linecap: butt; stroke-dashoffset: 0; stroke-linejoin: miter; stroke-miterlimit: 4; is-custom-font: none; font-file-url: none; fill: rgb(47,46,65); fill-rule: nonzero; opacity: 1;" transform=" translate(-968.4107, -408.3558)" d="M 968.83776 379.90643 l 2.89212 0.76981 l 0.9822 0.26143 l 11.00626 2.92959 c 9.75542 2.59665 15.29559 13.59859 12.37434 24.57354 c 5.39381 9.35076 0.71988 18.02256 -7.77417 26.4367 a 119.65544 119.65544 0 0 0 -32.82019 0.03946 l 0.18981 -6.30089 l -4.81881 7.082 q -4.12623 0.798 -8.27853 1.94356 c 6.2918 -12.39069 10.93041 -25.18875 11.72056 -35.87915 l -5.04 -1.34153 l 1.46811 -5.51557 l -3.179 5.06017 l -9.1372 -2.43209 l 0 0 A 24.857 24.857 0 0 1 968.83776 379.90643 Z" stroke-linecap="round"/>
</g>
		<g transform="matrix(1 0 0 1 389.1533 -66.5857)">
<circle style="stroke: none; stroke-width: 1; stroke-dasharray: none; stroke-linecap: butt; stroke-dashoffset: 0; stroke-linejoin: miter; stroke-miterlimit: 4; is-custom-font: none; font-file-url: none; fill: rgb(47,46,65); fill-rule: nonzero; opacity: 1;" cx="0" cy="0" r="11.22582"/>
</g>
		<g transform="matrix(1 0 0 1 360.0681 68.4535)">
<path style="stroke: none; stroke-width: 1; stroke-dasharray: none; stroke-linecap: butt; stroke-dashoffset: 0; stroke-linejoin: miter; stroke-miterlimit: 4; is-custom-font: none; font-file-url: none; fill: rgb(255,184,184); fill-rule: nonzero; opacity: 1;" transform=" translate(-960.0681, -518.4535)" d="M 949.459 566.33719 a 8.03788 8.03788 0 0 1 1.43533 0.13537 l 7.87765 -49.87011 l -7.892 -48.00969 a 12.09184 12.09184 0 0 1 23.47313 -5.56813 v 0 a 95.39625 95.39625 0 0 1 4.33928 29.25562 l -0.27525 32.74152 L 957.416 575.30606 a 8.01612 8.01612 0 1 1 -7.957 -8.96887 Z" stroke-linecap="round"/>
</g>
		<g transform="matrix(1 0 0 1 363.8861 32.8241)">
<path style="stroke: none; stroke-width: 1; stroke-dasharray: none; stroke-linecap: butt; stroke-dashoffset: 0; stroke-linejoin: miter; stroke-miterlimit: 4; is-custom-font: none; font-file-url: none; fill: rgb(77,3,114); fill-rule: nonzero; opacity: 1;" transform=" translate(-963.8861, -482.824)" d="M 978.69576 513.06693 l -21.46542 1.06657 l -12.36088 -43.60235 a 19.01659 19.01659 0 1 1 38.03318 0 Z" stroke-linecap="round"/>
</g>
		<g transform="matrix(1 0 0 1 207.013 234.2677)">
<path style="stroke: none; stroke-width: 1; stroke-dasharray: none; stroke-linecap: butt; stroke-dashoffset: 0; stroke-linejoin: miter; stroke-miterlimit: 4; is-custom-font: none; font-file-url: none; fill: rgb(47,46,65); fill-rule: nonzero; opacity: 1;" transform=" translate(-807.013, -684.2677)" d="M 825.83014 697.76772 h -7.70532 l -1.37534 -7.27479 l -3.52256 7.27479 H 792.79044 a 4.59391 4.59391 0 0 1 -2.61038 -8.37433 L 806.5 678.12229 v -7.35457 l 17.1657 1.02454 Z" stroke-linecap="round"/>
</g>
		<g transform="matrix(1 0 0 1 257.4241 234.2675)">
<path style="stroke: none; stroke-width: 1; stroke-dasharray: none; stroke-linecap: butt; stroke-dashoffset: 0; stroke-linejoin: miter; stroke-miterlimit: 4; is-custom-font: none; font-file-url: none; fill: rgb(47,46,65); fill-rule: nonzero; opacity: 1;" transform=" translate(-857.4242, -684.2676)" d="M 876.39927 694.88359 l -7.64229 0.98344 l -2.2926 -7.03975 l -2.56525 7.66488 l -20.26935 2.60834 a 4.5939 4.5939 0 0 1 -3.65785 -7.97266 L 854.71984 677.866 l -0.93867 -7.29442 l 17.15607 -1.17473 Z" stroke-linecap="round"/>
</g>
		<g transform="matrix(1 0 0 1 322.3206 248.3262)">
<path style="stroke: none; stroke-width: 1; stroke-dasharray: none; stroke-linecap: butt; stroke-dashoffset: 0; stroke-linejoin: miter; stroke-miterlimit: 4; is-custom-font: none; font-file-url: none; fill: rgb(0,8,34); fill-rule: nonzero; opacity: 1;" transform=" translate(-922.3206, -698.3262)" d="M 665.98831 698.33006 a 1.19066 1.19066 0 0 1 1.18683 -1.19452 h 510.294 a 1.19069 1.19069 0 0 1 0 2.38134 h -510.294 A 1.19064 1.19064 0 0 1 665.98831 698.33006 Z" stroke-linecap="round"/>
</g>
		<g transform="matrix(1 0 0 1 338.4648 -46.224)">
<path style="stroke: none; stroke-width: 1; stroke-dasharray: none; stroke-linecap: butt; stroke-dashoffset: 0; stroke-linejoin: miter; stroke-miterlimit: 4; is-custom-font: none; font-file-url: none; fill: rgb(63,61,86); fill-rule: nonzero; opacity: 1;" transform=" translate(-938.4648, -403.776)" d="M 941.61068 415.64038 l -11.90772 -0.89259 a 3.84822 3.84822 0 0 1 -3.54587 -4.12 l 1.1368 -15.1701 a 3.84766 3.84766 0 0 1 4.1207 -3.54622 l 11.90773 0.89259 l 0.00052 0 a 3.84332 3.84332 0 0 1 3.54517 4.11994 c 1.77887 4.32945 8.44489 7.01171 -1.13661 15.17005 a 3.84281 3.84281 0 0 1 -4.12072 3.54625 Z" stroke-linecap="round"/>
</g>
		<g transform="matrix(1 0 0 1 329.4214 -46.4463)">
<path style="stroke: none; stroke-width: 1; stroke-dasharray: none; stroke-linecap: butt; stroke-dashoffset: 0; stroke-linejoin: miter; stroke-miterlimit: 4; is-custom-font: none; font-file-url: none; fill: rgb(169,4,223); fill-rule: nonzero; opacity: 1;" transform=" translate(-929.4215, -403.5537)" d="M 930.81334 391.73186 l 2.69217 0.26684 l -1.95443 23.39545 l -2.69259 -0.26676 a 3.84521 3.84521 0 0 1 -2.61528 -1.41823 a 4.02169 4.02169 0 0 1 -0.89092 -2.888 l 1.29816 -15.54156 a 3.86452 3.86452 0 0 1 3.01851 -3.48562 A 3.73954 3.73954 0 0 1 930.81334 391.73186 Z" stroke-linecap="round"/>
</g>
		<g transform="matrix(1 0 0 1 367.5357 -44.3094)">
<path style="stroke: none; stroke-width: 1; stroke-dasharray: none; stroke-linecap: butt; stroke-dashoffset: 0; stroke-linejoin: miter; stroke-miterlimit: 4; is-custom-font: none; font-file-url: none; fill: rgb(63,61,86); fill-rule: nonzero; opacity: 1;" transform=" translate(-967.5357, -405.6906)" d="M 994.08167 412.19068 l -53.76478 -4.029 a 2.48835 2.48835 0 0 1 -2.29291 -2.66429 l 0.30072 -4.01353 l 0.0001 -0.00105 a 2.48551 2.48551 0 0 1 2.66469 -2.29238 l 53.76459 4.0291 h 0.00018 a 2.48554 2.48554 0 0 1 2.29292 2.66424 l -0.30083 4.014 a 2.48508 2.48508 0 0 1 -2.66468 2.293 Z" stroke-linecap="round"/>
</g>
		<g transform="matrix(1 0 0 1 333.5525 -52.2602)">
<path style="stroke: none; stroke-width: 1; stroke-dasharray: none; stroke-linecap: butt; stroke-dashoffset: 0; stroke-linejoin: miter; stroke-miterlimit: 4; is-custom-font: none; font-file-url: none; fill: rgb(144,255,223); fill-rule: nonzero; opacity: 1;" transform=" translate(-933.5525, -397.7398)" d="M 933.189 401.40885 l -0.00039 0.00009 a 2.04792 2.04792 0 0 1 -1.833 -2.23692 l 0.3229 -3.255 l 0.00257 -0.026 a 2.04469 2.04469 0 0 1 4.06679 0.42929 l -0.3229 3.255 a 2.04395 2.04395 0 0 1 -2.236 1.83356 Z" stroke-linecap="round"/>
</g>
		<g transform="matrix(1 0 0 1 332.984 -43.7324)">
<path style="stroke: none; stroke-width: 1; stroke-dasharray: none; stroke-linecap: butt; stroke-dashoffset: 0; stroke-linejoin: miter; stroke-miterlimit: 4; is-custom-font: none; font-file-url: none; fill: rgb(144,255,223); fill-rule: nonzero; opacity: 1;" transform=" translate(-932.984, -406.2676)" d="M 932.793 409.94159 l -0.00037 0 a 2.04469 2.04469 0 0 1 -1.93563 -2.14822 l 0.17017 -3.26715 a 2.04474 2.04474 0 0 1 4.08394 0.21271 l -0.17018 3.26715 a 2.04108 2.04108 0 0 1 -2.14793 1.93552 Z" stroke-linecap="round"/>
</g>
		<g transform="matrix(1 0 0 1 397.6341 64.8431)">
<path style="stroke: none; stroke-width: 1; stroke-dasharray: none; stroke-linecap: butt; stroke-dashoffset: 0; stroke-linejoin: miter; stroke-miterlimit: 4; is-custom-font: none; font-file-url: none; fill: rgb(63,61,86); fill-rule: nonzero; opacity: 1;" transform=" translate(-997.6341, -514.8431)" d="M 999.0296 539.58293 l -3.06822 -0.03486 a 11.10662 11.10662 0 0 1 -10.9674 -11.21939 l 0.02521 -27.258 a 11.10664 11.10664 0 0 1 11.21939 -10.9674 l 3.06818 0.03486 a 11.10658 11.10658 0 0 1 10.96737 11.2194 l -0.02518 27.25795 A 11.1066 11.1066 0 0 1 999.0296 539.58293 Z" stroke-linecap="round"/>
</g>
		<g transform="matrix(1 0 0 1 373.9921 125.0312)">
<path style="stroke: none; stroke-width: 1; stroke-dasharray: none; stroke-linecap: butt; stroke-dashoffset: 0; stroke-linejoin: miter; stroke-miterlimit: 4; is-custom-font: none; font-file-url: none; fill: rgb(63,61,86); fill-rule: nonzero; opacity: 1;" transform=" translate(-973.9921, -575.0312)" d="M 942.33523 607.54227 l 2.30664 -3.26757 a 33.004 33.004 0 0 0 18.99958 6.02 c 18.22744 0.00207 38.00543 -56.29953 38.0075 -74.527 h 4 c -0.0231 20.425 -21.575 78.50392 -42 78.527 A 36.76265 36.76265 0 0 1 942.33523 607.54227 Z" stroke-linecap="round"/>
</g>
		<g transform="matrix(1 0 0 1 -319.6152 115.2317)">
<path style="stroke: none; stroke-width: 1; stroke-dasharray: none; stroke-linecap: butt; stroke-dashoffset: 0; stroke-linejoin: miter; stroke-miterlimit: 4; is-custom-font: none; font-file-url: none; fill: rgb(255,182,182); fill-rule: nonzero; opacity: 1;" transform=" translate(-280.3848, -565.2317)" d="M 301.77809 574.2804 a 10.05577 10.05577 0 0 0 -14.1374 -6.15556 l -25.56 -24.97324 l -3.52158 18.23273 l 24.81214 20.91978 a 10.11027 10.11027 0 0 0 18.40683 -8.02368 Z" stroke-linecap="round"/>
</g>
		<g transform="matrix(1 0 0 1 -347.8495 65.3896)">
<path style="stroke: none; stroke-width: 1; stroke-dasharray: none; stroke-linecap: butt; stroke-dashoffset: 0; stroke-linejoin: miter; stroke-miterlimit: 4; is-custom-font: none; font-file-url: none; fill: rgb(77,3,114); fill-rule: nonzero; opacity: 1;" transform=" translate(-252.1506, -515.3897)" d="M 273.20131 575.615 l -50.45456 -40.46382 l 0.0307 -0.27382 c 0.0584 -0.5237 5.89606 -52.52779 8.89765 -63.32863 a 29.68069 29.68069 0 0 1 11.14628 -16.2935 l 0.14069 -0.09089 l 0.16736 0.01226 a 15.062 15.062 0 0 1 13.7446 12.88281 a 106.6879 106.6879 0 0 1 -4.62239 48.72226 l -3.02253 8.90608 l 32.3253 34.49417 Z" stroke-linecap="round"/>
</g>
		<g transform="matrix(1 0 0 1 -403.134 72.8161)">
<path style="stroke: none; stroke-width: 1; stroke-dasharray: none; stroke-linecap: butt; stroke-dashoffset: 0; stroke-linejoin: miter; stroke-miterlimit: 4; is-custom-font: none; font-file-url: none; fill: rgb(63,61,86); fill-rule: nonzero; opacity: 1;" transform=" translate(-196.8659, -522.8161)" d="M 184.45549 538.27118 L 184.02892 508.04 a 11.1066 11.1066 0 0 1 10.79184 -11.38835 l 3.06728 -0.08249 a 11.10662 11.10662 0 0 1 11.38833 10.79186 l 0.4266 30.23117 a 11.10661 11.10661 0 0 1 -10.79187 11.38833 l -3.06731 0.08251 A 11.10661 11.10661 0 0 1 184.45549 538.27118 Z" stroke-linecap="round"/>
</g>
		<g transform="matrix(1 0 0 1 -377.4921 126.7677)">
<path style="stroke: none; stroke-width: 1; stroke-dasharray: none; stroke-linecap: butt; stroke-dashoffset: 0; stroke-linejoin: miter; stroke-miterlimit: 4; is-custom-font: none; font-file-url: none; fill: rgb(63,61,86); fill-rule: nonzero; opacity: 1;" transform=" translate(-222.5079, -576.7678)" d="M 233.35105 610.76772 c -20.425 -0.02307 -42.9769 -47.575 -43 -68 h 4 c 0.00207 18.22747 20.78006 64.00207 39.0075 64 a 33.004 33.004 0 0 0 18.99958 -6.02 l 2.30664 3.26758 A 36.76271 36.76271 0 0 1 233.35105 610.76772 Z" stroke-linecap="round"/>
</g>
		<g transform="matrix(1 0 0 1 -317.7091 -41.6481)">
<path style="stroke: none; stroke-width: 1; stroke-dasharray: none; stroke-linecap: butt; stroke-dashoffset: 0; stroke-linejoin: miter; stroke-miterlimit: 4; is-custom-font: none; font-file-url: none; fill: rgb(63,61,86); fill-rule: nonzero; opacity: 1;" transform=" translate(-282.2909, -408.3519)" d="M 277.69067 420.45854 a 3.99827 3.99827 0 0 1 -3.02542 -3.64914 c -9.789 -8.65049 -2.81912 -11.30722 -0.89017 -15.76686 a 3.9897 3.9897 0 0 1 3.7582 -4.20846 l 0.00054 0 l 12.37618 -0.69917 a 3.9942 3.9942 0 0 1 4.20924 3.7593 l 0.89038 15.7669 a 3.9948 3.9948 0 0 1 -3.75893 4.20848 l -12.37618 0.69917 A 3.98028 3.98028 0 0 1 277.69067 420.45854 Z" stroke-linecap="round"/>
</g>
		<g transform="matrix(1 0 0 1 -308.2055 -41.7739)">
<path style="stroke: none; stroke-width: 1; stroke-dasharray: none; stroke-linecap: butt; stroke-dashoffset: 0; stroke-linejoin: miter; stroke-miterlimit: 4; is-custom-font: none; font-file-url: none; fill: rgb(169,4,223); fill-rule: nonzero; opacity: 1;" transform=" translate(-291.7945, -408.2261)" d="M 291.72405 396.04617 a 4.01171 4.01171 0 0 1 3.06643 3.67537 l 1.05075 16.15552 a 4.17487 4.17487 0 0 1 -0.9798 2.98053 a 3.99172 3.99172 0 0 1 -2.7415 1.42208 l -2.79976 0.22548 l -1.582 -24.31967 l 2.79932 -0.22559 A 3.88178 3.88178 0 0 1 291.72405 396.04617 Z" stroke-linecap="round"/>
</g>
		<g transform="matrix(1 0 0 1 -347.8434 -40.253)">
<path style="stroke: none; stroke-width: 1; stroke-dasharray: none; stroke-linecap: butt; stroke-dashoffset: 0; stroke-linejoin: miter; stroke-miterlimit: 4; is-custom-font: none; font-file-url: none; fill: rgb(63,61,86); fill-rule: nonzero; opacity: 1;" transform=" translate(-252.1566, -409.747)" d="M 223.71428 415.91548 a 2.58418 2.58418 0 0 1 -1.95605 -2.35942 l -0.23563 -4.17188 a 2.58021 2.58021 0 0 1 2.43069 -2.72148 h 0.00019 L 279.8332 403.507 a 2.58017 2.58017 0 0 1 2.722 2.43014 l 0.00008 0.00109 l 0.23552 4.17142 a 2.58312 2.58312 0 0 1 -2.43068 2.72154 l -55.87992 3.15569 A 2.56642 2.56642 0 0 1 223.71428 415.91548 Z" stroke-linecap="round"/>
</g>
		<g transform="matrix(1 0 0 1 -312.4202 -47.8567)">
<path style="stroke: none; stroke-width: 1; stroke-dasharray: none; stroke-linecap: butt; stroke-dashoffset: 0; stroke-linejoin: miter; stroke-miterlimit: 4; is-custom-font: none; font-file-url: none; fill: rgb(144,255,223); fill-rule: nonzero; opacity: 1;" transform=" translate(-287.5798, -402.1433)" d="M 287.20747 405.90336 a 2.1261 2.1261 0 0 1 -1.60618 -1.89071 l -0.273 -3.38453 a 2.12256 2.12256 0 1 1 4.22915 -0.368 l 0.00217 0.027 l 0.273 3.38454 a 2.12592 2.12592 0 0 1 -1.94516 2.28674 l -0.0004 -0.0001 A 2.11576 2.11576 0 0 1 287.20747 405.90336 Z" stroke-linecap="round"/>
</g>
		<g transform="matrix(1 0 0 1 -311.9929 -38.9963)">
<path style="stroke: none; stroke-width: 1; stroke-dasharray: none; stroke-linecap: butt; stroke-dashoffset: 0; stroke-linejoin: miter; stroke-miterlimit: 4; is-custom-font: none; font-file-url: none; fill: rgb(144,255,223); fill-rule: nonzero; opacity: 1;" transform=" translate(-288.0071, -411.0037)" d="M 287.54949 414.76093 a 2.12534 2.12534 0 0 1 -1.60664 -1.98863 l -0.11427 -3.39426 a 2.12261 2.12261 0 0 1 4.24282 -0.14284 l 0.11427 3.39426 a 2.12255 2.12255 0 0 1 -2.05 2.19271 l -0.00037 0 A 2.13254 2.13254 0 0 1 287.54949 414.76093 Z" stroke-linecap="round"/>
</g>
		<g transform="matrix(1 0 0 1 -8.3025 -110.8707)" id="f2de2510-d869-4726-96f2-631808817dc6-138">
<path style="stroke: none; stroke-width: 1; stroke-dasharray: none; stroke-linecap: butt; stroke-dashoffset: 0; stroke-linejoin: miter; stroke-miterlimit: 4; is-custom-font: none; font-file-url: none; fill: rgb(144,255,223); fill-rule: nonzero; opacity: 0.54;" transform=" translate(-591.6975, -339.1293)" d="M 448.10849 243.55683 l 287.178 -41.917 v 274.979 l -287.178 -41.916 Z" stroke-linecap="round"/>
</g>
		<g transform="matrix(1 0 0 1 -8.3023 -110.8711)">
<path style="stroke: none; stroke-width: 1; stroke-dasharray: none; stroke-linecap: butt; stroke-dashoffset: 0; stroke-linejoin: miter; stroke-miterlimit: 4; is-custom-font: none; font-file-url: none; fill: rgb(144,255,223); fill-rule: nonzero; opacity: 1;" transform=" translate(-591.6976, -339.1289)" d="M 736.287 477.77464 l -289.17871 -42.207 V 242.69212 l 289.17871 -42.209 Z M 449.10825 433.83811 L 734.287 475.4621 V 202.79661 l -285.17871 41.625 Z" stroke-linecap="round"/>
</g>
</g>
</g>
</svg>