<svg xmlns="http://www.w3.org/2000/svg" xmlns:xlink="http://www.w3.org/1999/xlink" version="1.1" width="580" height="580" viewBox="0 0 580 580" xml:space="preserve">
	<rect x="0" y="0" width="100%" height="100%" fill="rgba(255,255,255,0)" />
	<g transform="matrix(0.7802 0 0 0.7802 331.5997 230.4354)" id="40084">
		<g style="" vector-effect="non-scaling-stroke">
			<g transform="matrix(1 0 0 1 0 0)">
				<circle style="stroke: none; stroke-width: 1; stroke-dasharray: none; stroke-linecap: butt; stroke-dashoffset: 0; stroke-linejoin: miter; stroke-miterlimit: 4; is-custom-font: none; font-file-url: none; fill: rgb(169,4,223); fill-rule: nonzero; opacity: 1;" cx="0" cy="0" r="45" />
			</g>
			<g transform="matrix(1 0 0 1 0 0)">
				<circle style="stroke: rgb(20,26,38); stroke-width: 8.55; stroke-dasharray: none; stroke-linecap: butt; stroke-dashoffset: 0; stroke-linejoin: miter; stroke-miterlimit: 4; is-custom-font: none; font-file-url: none; fill: none; fill-rule: nonzero; opacity: 1;" cx="0" cy="0" r="21.825" />
			</g>
			<g transform="matrix(1 0 0 1 -30.6 0)" id="friend">
				<circle style="stroke: none; stroke-width: 1; stroke-dasharray: none; stroke-linecap: butt; stroke-dashoffset: 0; stroke-linejoin: miter; stroke-miterlimit: 4; is-custom-font: none; font-file-url: none; fill: rgb(169,4,223); fill-rule: nonzero; opacity: 1;" cx="0" cy="0" r="8.4376" />
			</g>
			<g transform="matrix(1 0 0 1 22 0)" id="friend">
				<path style="stroke: rgb(169,4,223); stroke-width: 3.2378; stroke-dasharray: none; stroke-linecap: butt; stroke-dashoffset: 0; stroke-linejoin: miter; stroke-miterlimit: 4; is-custom-font: none; font-file-url: none; fill: rgb(0,0,0); fill-rule: nonzero; opacity: 1;" transform=" translate(-72, -50)" d="M 67 50 H 77" stroke-linecap="round" />
			</g>
			<g transform="matrix(1 0 0 1 -30.6001 0.0001)" id="friend">
				<circle style="stroke: none; stroke-width: 1; stroke-dasharray: none; stroke-linecap: butt; stroke-dashoffset: 0; stroke-linejoin: miter; stroke-miterlimit: 4; is-custom-font: none; font-file-url: none; fill: rgb(20,26,38); fill-rule: nonzero; opacity: 1;" cx="0" cy="0" r="6.00745" />
			</g>
			<g transform="matrix(-0.5 0.866 -0.866 -0.5 15.3 -26.5004)">
				<circle style="stroke: none; stroke-width: 1; stroke-dasharray: none; stroke-linecap: butt; stroke-dashoffset: 0; stroke-linejoin: miter; stroke-miterlimit: 4; is-custom-font: none; font-file-url: none; fill: rgb(169,4,223); fill-rule: nonzero; opacity: 1;" cx="0" cy="0" r="8.4376" />
			</g>
			<g transform="matrix(-0.5 0.866 -0.866 -0.5 -11 19.0526)">
				<path style="stroke: rgb(169,4,223); stroke-width: 3.2378; stroke-dasharray: none; stroke-linecap: butt; stroke-dashoffset: 0; stroke-linejoin: miter; stroke-miterlimit: 4; is-custom-font: none; font-file-url: none; fill: rgb(0,0,0); fill-rule: nonzero; opacity: 1;" transform=" translate(-72, -50)" d="M 67 50 H 77" stroke-linecap="round" />
			</g>
			<g transform="matrix(-0.5 0.866 -0.866 -0.5 15.3 -26.5004)">
				<circle style="stroke: none; stroke-width: 1; stroke-dasharray: none; stroke-linecap: butt; stroke-dashoffset: 0; stroke-linejoin: miter; stroke-miterlimit: 4; is-custom-font: none; font-file-url: none; fill: rgb(20,26,38); fill-rule: nonzero; opacity: 1;" cx="0" cy="0" r="6.00745" />
			</g>
			<g transform="matrix(-0.5 -0.866 0.866 -0.5 15.3 26.5004)">
				<circle style="stroke: none; stroke-width: 1; stroke-dasharray: none; stroke-linecap: butt; stroke-dashoffset: 0; stroke-linejoin: miter; stroke-miterlimit: 4; is-custom-font: none; font-file-url: none; fill: rgb(169,4,223); fill-rule: nonzero; opacity: 1;" cx="0" cy="0" r="8.4376" />
			</g>
			<g transform="matrix(-0.5 -0.866 0.866 -0.5 -11 -19.0526)">
				<path style="stroke: rgb(169,4,223); stroke-width: 3.2378; stroke-dasharray: none; stroke-linecap: butt; stroke-dashoffset: 0; stroke-linejoin: miter; stroke-miterlimit: 4; is-custom-font: none; font-file-url: none; fill: rgb(0,0,0); fill-rule: nonzero; opacity: 1;" transform=" translate(-72, -50)" d="M 67 50 H 77" stroke-linecap="round" />
			</g>
			<g transform="matrix(-0.5 -0.866 0.866 -0.5 15.3 26.5004)">
				<circle style="stroke: none; stroke-width: 1; stroke-dasharray: none; stroke-linecap: butt; stroke-dashoffset: 0; stroke-linejoin: miter; stroke-miterlimit: 4; is-custom-font: none; font-file-url: none; fill: rgb(20,26,38); fill-rule: nonzero; opacity: 1;" cx="0" cy="0" r="6.00745" />
			</g>
		</g>
	</g>
	<g transform="matrix(0.8967 0 0 0.8967 290.2178 290.1787)" id="730354">
		<g style="" vector-effect="non-scaling-stroke">
			<g transform="matrix(1 0 0 1 -114.7187 236.2767)">
				<polygon style="stroke: none; stroke-width: 1; stroke-dasharray: none; stroke-linecap: butt; stroke-dashoffset: 0; stroke-linejoin: miter; stroke-miterlimit: 4; is-custom-font: none; font-file-url: none; fill: rgb(158,97,106); fill-rule: nonzero; opacity: 1;" points="-5.126,13.397 1.82,13.397 5.126,-13.397 -5.126,-13.397 -5.126,13.397 " />
			</g>
			<g transform="matrix(1 0 0 1 -111.346 252.981)">
				<path style="stroke: none; stroke-width: 1; stroke-dasharray: none; stroke-linecap: butt; stroke-dashoffset: 0; stroke-linejoin: miter; stroke-miterlimit: 4; is-custom-font: none; font-file-url: none; fill: rgb(47,46,65); fill-rule: nonzero; opacity: 1;" transform=" translate(-488.654, -702.981)" d="M 477.88787 694.91553 l 11.09785 -0.66239 v 4.7548 l 10.551 7.28693 a 2.97 2.97 0 0 1 -1.68767 5.41408 l -13.21241 0 l -2.27736 -4.70323 l -0.8892 4.70323 h -4.9816 Z" stroke-linecap="round" />
			</g>
			<g transform="matrix(1 0 0 1 -197.1907 232.6092)">
				<polygon style="stroke: none; stroke-width: 1; stroke-dasharray: none; stroke-linecap: butt; stroke-dashoffset: 0; stroke-linejoin: miter; stroke-miterlimit: 4; is-custom-font: none; font-file-url: none; fill: rgb(158,97,106); fill-rule: nonzero; opacity: 1;" points="-9.717,11.1625 -3.263,13.7315 9.717,-9.9395 0.192,-13.7315 -9.717,11.1625 " />
			</g>
			<g transform="matrix(1 0 0 1 -202.8085 250.111)">
				<path style="stroke: none; stroke-width: 1; stroke-dasharray: none; stroke-linecap: butt; stroke-dashoffset: 0; stroke-linejoin: miter; stroke-miterlimit: 4; is-custom-font: none; font-file-url: none; fill: rgb(47,46,65); fill-rule: nonzero; opacity: 1;" transform=" translate(-397.1915, -700.111)" d="M 392.74529 688.513 l 10.55593 3.48905 l -1.75853 4.41766 l 7.10788 10.67247 a 2.97 2.97 0 0 1 -3.57037 4.406 l -12.27557 -4.88652 l -0.37642 -5.212 l -2.5656 4.04088 l -4.62838 -1.84241 Z" stroke-linecap="round" />
			</g>
			<g transform="matrix(1 0 0 1 -154.9068 140.8871)">
				<path style="stroke: none; stroke-width: 1; stroke-dasharray: none; stroke-linecap: butt; stroke-dashoffset: 0; stroke-linejoin: miter; stroke-miterlimit: 4; is-custom-font: none; font-file-url: none; fill: rgb(47,46,65); fill-rule: nonzero; opacity: 1;" transform=" translate(-445.0932, -590.8871)" d="M 466.1528 619.94528 L 454.56932 565.889 l -18.088 60.06112 L 407.84 682.90371 l -0.15174 0.3022 l -9.07261 -4.88478 c -1.28041 -23.1256 1.76059 -44.79611 12.883 -63.74547 l 5.26673 -52.01153 c 0.16139 -1.77723 4.09006 -43.49961 16.53 -50.89851 l 3.64318 -8.30711 l 36.23478 -8.94915 l 0.13181 0.14853 a 27.70142 27.70142 0 0 1 6.6376 13.913 L 490.77 574.06273 l 0.00611 0.03665 l -2.90311 45.7578 l 3.97112 67.5076 h -14.3689 Q 464.14156 662.27631 466.1528 619.94528 Z" stroke-linecap="round" />
			</g>
			<g transform="matrix(1 0 0 1 -7.7283 -232.0907)">
				<path style="stroke: none; stroke-width: 1; stroke-dasharray: none; stroke-linecap: butt; stroke-dashoffset: 0; stroke-linejoin: miter; stroke-miterlimit: 4; is-custom-font: none; font-file-url: none; fill: rgb(202,202,202); fill-rule: nonzero; opacity: 1;" transform=" translate(-592.2717, -217.9093)" d="M 819.41821 219.71588 H 365.1252 a 1.807 1.807 0 0 1 0 -3.61318 h 454.293 a 1.807 1.807 0 0 1 0 3.61318 Z" stroke-linecap="round" />
			</g>
			<g transform="matrix(1 0 0 1 -203.9505 -253.9449)">
				<ellipse style="stroke: none; stroke-width: 1; stroke-dasharray: none; stroke-linecap: butt; stroke-dashoffset: 0; stroke-linejoin: miter; stroke-miterlimit: 4; is-custom-font: none; font-file-url: none; fill: rgb(63,61,86); fill-rule: nonzero; opacity: 1;" cx="0" cy="0" rx="10.58751" ry="10.82345" />
			</g>
			<g transform="matrix(1 0 0 1 -167.3755 -253.9449)">
				<ellipse style="stroke: none; stroke-width: 1; stroke-dasharray: none; stroke-linecap: butt; stroke-dashoffset: 0; stroke-linejoin: miter; stroke-miterlimit: 4; is-custom-font: none; font-file-url: none; fill: rgb(63,61,86); fill-rule: nonzero; opacity: 1;" cx="0" cy="0" rx="10.58751" ry="10.82345" />
			</g>
			<g transform="matrix(1 0 0 1 -130.8005 -253.9449)">
				<ellipse style="stroke: none; stroke-width: 1; stroke-dasharray: none; stroke-linecap: butt; stroke-dashoffset: 0; stroke-linejoin: miter; stroke-miterlimit: 4; is-custom-font: none; font-file-url: none; fill: rgb(63,61,86); fill-rule: nonzero; opacity: 1;" cx="0" cy="0" rx="10.58751" ry="10.82345" />
			</g>
			<g transform="matrix(1 0 0 1 184.4065 -260.1184)">
				<path style="stroke: none; stroke-width: 1; stroke-dasharray: none; stroke-linecap: butt; stroke-dashoffset: 0; stroke-linejoin: miter; stroke-miterlimit: 4; is-custom-font: none; font-file-url: none; fill: rgb(63,61,86); fill-rule: nonzero; opacity: 1;" transform=" translate(-784.4065, -189.8816)" d="M 797.39694 187.91439 H 771.416 a 1.96761 1.96761 0 0 0 0 3.93445 h 25.981 a 1.96761 1.96761 0 0 0 0 -3.93445 Z" stroke-linecap="round" />
			</g>
			<g transform="matrix(1 0 0 1 184.4064 -252.734)">
				<path style="stroke: none; stroke-width: 1; stroke-dasharray: none; stroke-linecap: butt; stroke-dashoffset: 0; stroke-linejoin: miter; stroke-miterlimit: 4; is-custom-font: none; font-file-url: none; fill: rgb(63,61,86); fill-rule: nonzero; opacity: 1;" transform=" translate(-784.4065, -197.266)" d="M 797.39694 195.29876 H 771.416 a 1.96762 1.96762 0 0 0 0 3.93446 h 25.981 a 1.96762 1.96762 0 0 0 0 -3.93446 Z" stroke-linecap="round" />
			</g>
			<g transform="matrix(1 0 0 1 184.4064 -245.3594)">
				<path style="stroke: none; stroke-width: 1; stroke-dasharray: none; stroke-linecap: butt; stroke-dashoffset: 0; stroke-linejoin: miter; stroke-miterlimit: 4; is-custom-font: none; font-file-url: none; fill: rgb(63,61,86); fill-rule: nonzero; opacity: 1;" transform=" translate(-784.4065, -204.6407)" d="M 797.39694 202.67343 H 771.416 a 1.96762 1.96762 0 0 0 0 3.93446 h 25.981 a 1.96762 1.96762 0 0 0 0 -3.93446 Z" stroke-linecap="round" />
			</g>
			<g transform="matrix(1 0 0 1 83.5865 -48.7825)">
				<path style="stroke: none; stroke-width: 1; stroke-dasharray: none; stroke-linecap: butt; stroke-dashoffset: 0; stroke-linejoin: miter; stroke-miterlimit: 4; is-custom-font: none; font-file-url: none; fill: rgb(255,182,182); fill-rule: nonzero; opacity: 1;" transform=" translate(-683.5865, -401.2175)" d="M 676.79115 387.50826 a 7.25843 7.25843 0 0 1 7.0851 8.58349 l 13.90266 9.04629 l -3.43681 9.78942 l -19.45382 -13.05087 a 7.29775 7.29775 0 0 1 1.90287 -14.36833 Z" stroke-linecap="round" />
			</g>
			<g transform="matrix(1 0 0 1 120.7288 -25.8897)">
				<path style="stroke: none; stroke-width: 1; stroke-dasharray: none; stroke-linecap: butt; stroke-dashoffset: 0; stroke-linejoin: miter; stroke-miterlimit: 4; is-custom-font: none; font-file-url: none; fill: rgb(77,3,114); fill-rule: nonzero; opacity: 1;" transform=" translate(-720.7289, -424.1103)" d="M 681.74295 411.29605 l 9.92273 -11.4566 l 12.82174 5.9463 l 26.20094 20.85158 c 3.43487 0.40138 29.49893 3.76515 29.01991 13.337 a 7.75087 7.75087 0 0 1 -2.771 5.85848 c -4.11378 3.39576 -11.243 2.43206 -11.50942 2.39268 l -17.05708 -0.8535 c -0.89231 0.21509 -10.15161 2.34217 -15.05274 -0.70182 C 711.83132 445.74657 681.74295 411.29605 681.74295 411.29605 Z" stroke-linecap="round" />
			</g>
			<g transform="matrix(1 0 0 1 104.3633 238.2467)">
				<polygon style="stroke: none; stroke-width: 1; stroke-dasharray: none; stroke-linecap: butt; stroke-dashoffset: 0; stroke-linejoin: miter; stroke-miterlimit: 4; is-custom-font: none; font-file-url: none; fill: rgb(255,182,182); fill-rule: nonzero; opacity: 1;" points="5.996,15.674 -2.131,15.673 -5.997,-15.674 5.997,-15.674 5.996,15.674 " />
			</g>
			<g transform="matrix(1 0 0 1 99.3296 254.7165)">
				<path style="stroke: none; stroke-width: 1; stroke-dasharray: none; stroke-linecap: butt; stroke-dashoffset: 0; stroke-linejoin: miter; stroke-miterlimit: 4; is-custom-font: none; font-file-url: none; fill: rgb(47,46,65); fill-rule: nonzero; opacity: 1;" transform=" translate(-699.3296, -704.7165)" d="M 712.43192 711.79828 l -26.20525 -0.001 v -0.33146 a 10.20036 10.20036 0 0 1 10.19982 -10.19965 h 0.00064 l 4.78674 -3.63147 l 8.931 3.632 l 2.28756 0.00009 Z" stroke-linecap="round" />
			</g>
			<g transform="matrix(1 0 0 1 189.6078 233.5337)">
				<polygon style="stroke: none; stroke-width: 1; stroke-dasharray: none; stroke-linecap: butt; stroke-dashoffset: 0; stroke-linejoin: miter; stroke-miterlimit: 4; is-custom-font: none; font-file-url: none; fill: rgb(255,182,182); fill-rule: nonzero; opacity: 1;" points="9.9535,14.026 2.1195,16.19 -9.9535,-12.997 1.6085,-16.19 9.9535,14.026 " />
			</g>
			<g transform="matrix(1 0 0 1 190.7979 252.7572)">
				<path style="stroke: none; stroke-width: 1; stroke-dasharray: none; stroke-linecap: butt; stroke-dashoffset: 0; stroke-linejoin: miter; stroke-miterlimit: 4; is-custom-font: none; font-file-url: none; fill: rgb(47,46,65); fill-rule: nonzero; opacity: 1;" transform=" translate(-790.7979, -702.7572)" d="M 803.65705 704.60154 l -25.2595 6.9766 l -0.08825 -0.31948 a 10.20037 10.20037 0 0 1 7.11579 -12.5473 l 0.00062 -0.00017 l 3.647 -4.77491 l 9.57565 1.1229 l 2.205 -0.609 Z" stroke-linecap="round" />
			</g>
			<g transform="matrix(1 0 0 1 146.6838 153.3127)">
				<path style="stroke: none; stroke-width: 1; stroke-dasharray: none; stroke-linecap: butt; stroke-dashoffset: 0; stroke-linejoin: miter; stroke-miterlimit: 4; is-custom-font: none; font-file-url: none; fill: rgb(47,46,65); fill-rule: nonzero; opacity: 1;" transform=" translate(-746.6839, -603.3127)" d="M 710.71755 514.21056 l 61.41041 3.13318 l 0.02 0.05559 a 60.47155 60.47155 0 0 1 2.48654 31.90287 v 0 l 1.87991 15.66592 l 9.39955 48.87767 l 12.53274 62.66368 s 16.29256 4.38646 -5.0131 11.9061 s -16.91919 3.13318 -13.786 -2.50655 s -15.3526 -69.24337 -15.3526 -69.24337 l -22.55892 -50.75758 l -21.93229 52.6375 l -2.50655 58.27722 s 6.57969 7.833 -12.21942 10.96614 s -17.85915 -2.81986 -13.47269 -7.20632 s 8.14628 -62.66368 8.14628 -62.66368 l 4.38646 -55.144 S 702.88459 530.81643 710.71755 514.21056 Z" stroke-linecap="round" />
			</g>
			<g transform="matrix(1 0 0 1 143.7514 21.4124)">
				<path style="stroke: none; stroke-width: 1; stroke-dasharray: none; stroke-linecap: butt; stroke-dashoffset: 0; stroke-linejoin: miter; stroke-miterlimit: 4; is-custom-font: none; font-file-url: none; fill: rgb(77,3,114); fill-rule: nonzero; opacity: 1;" transform=" translate(-743.7514, -471.4124)" d="M 770.76505 442.6193 l -4.93772 -12.95064 l -15.90024 -15.66085 L 729.78972 412.427 l -14.79966 13.25085 l -4.18519 13.18165 c 5.489 25.41579 5.37658 48.82412 -2.40084 71.50228 a 11.42846 11.42846 0 0 0 8.83338 15.05992 c 22.81286 3.83361 65.2933 9.58187 62.36726 -1.3612 c -3.87067 -14.47582 -17.337 -45.63348 -12.34856 -62.10887 a 77.33834 77.33834 0 0 0 3.40408 -17.62909 Z" stroke-linecap="round" />
			</g>
			<g transform="matrix(1 0 0 1 136.4727 -60.5993)">
				<circle style="stroke: none; stroke-width: 1; stroke-dasharray: none; stroke-linecap: butt; stroke-dashoffset: 0; stroke-linejoin: miter; stroke-miterlimit: 4; is-custom-font: none; font-file-url: none; fill: rgb(255,182,182); fill-rule: nonzero; opacity: 1;" cx="0" cy="0" r="17.97244" />
			</g>
			<g transform="matrix(1 0 0 1 134.2412 -63.9557)">
				<path style="stroke: none; stroke-width: 1; stroke-dasharray: none; stroke-linecap: butt; stroke-dashoffset: 0; stroke-linejoin: miter; stroke-miterlimit: 4; is-custom-font: none; font-file-url: none; fill: rgb(47,46,65); fill-rule: nonzero; opacity: 1;" transform=" translate(-734.2412, -386.0442)" d="M 731.56815 406.429 l 13.69963 -0.69878 c 1.75537 -0.08954 3.67125 -0.24458 4.948 -1.45254 a 7.496 7.496 0 0 0 1.55291 -2.57973 c 1.26653 -2.9419 2.5331 -5.88388 3.76727 -8.8395 c 1.70712 -4.08828 3.38372 -8.40492 2.948 -12.81382 a 8.15425 8.15425 0 0 0 -2.3703 -5.34505 a 4.52673 4.52673 0 0 0 -5.50173 -0.55749 a 9.30292 9.30292 0 0 0 -4.61782 -6.70481 a 14.25728 14.25728 0 0 0 -8.1316 -1.724 a 19.62574 19.62574 0 0 0 -11.17672 4.40509 a 24.25989 24.25989 0 0 1 -2.85131 2.25946 a 4.476 4.476 0 0 1 -3.47994 0.64388 a 2.51848 2.51848 0 0 1 -1.84876 -2.74506 a 4.84559 4.84559 0 0 0 -1.23944 6.397 a 4.47141 4.47141 0 0 1 -4.37 -0.517 a 5.34263 5.34263 0 1 0 5.60281 9.043 c 0.83146 1.16458 0.52183 2.74719 0.4135 4.174 s 0.27433 3.20008 1.64985 3.59444 c 1.85957 0.53313 3.36582 -1.97075 5.30013 -1.94407 a 2.90879 2.90879 0 0 1 2.30676 1.48648 a 8.58619 8.58619 0 0 1 0.9234 2.6958 l 2.47559 11.14495" stroke-linecap="round" />
			</g>
			<g transform="matrix(1 0 0 1 63.3263 -14.3092)">
				<path style="stroke: none; stroke-width: 1; stroke-dasharray: none; stroke-linecap: butt; stroke-dashoffset: 0; stroke-linejoin: miter; stroke-miterlimit: 4; is-custom-font: none; font-file-url: none; fill: rgb(255,182,182); fill-rule: nonzero; opacity: 1;" transform=" translate(-663.3264, -435.6908)" d="M 655.94236 422.42316 a 7.25841 7.25841 0 0 1 7.49055 8.23205 L 677.7554 439.021 l -2.961 9.94367 l -20.0602 -12.09813 a 7.29775 7.29775 0 0 1 1.20818 -14.44334 Z" stroke-linecap="round" />
			</g>
			<g transform="matrix(1 0 0 1 94.5057 -4.0462)">
				<path style="stroke: none; stroke-width: 1; stroke-dasharray: none; stroke-linecap: butt; stroke-dashoffset: 0; stroke-linejoin: miter; stroke-miterlimit: 4; is-custom-font: none; font-file-url: none; fill: rgb(77,3,114); fill-rule: nonzero; opacity: 1;" transform=" translate(-694.5057, -445.9538)" d="M 672.80666 453.64046 l -10.6974 -11.57613 l 7.41568 -11.0869 l 7.9921 6.70571 l 8.7384 2.09073 l 12.33014 4.67514 c 1.71665 -3.00208 15.03537 -25.65737 23.652 -21.46185 a 7.75087 7.75087 0 0 1 4.30186 4.84709 c 1.50978 5.11614 -2.17335 11.29584 -2.3141 11.52547 l -7.47634 15.355 c -0.15219 0.90517 -1.82791 10.25669 -6.55054 13.57085 a 5.97166 5.97166 0 0 1 -4.69033 1.03639 c -14.67512 -2.77547 -25.01584 -7.06756 -30.29232 -12.527 A 16.08207 16.08207 0 0 1 672.80666 453.64046 Z" stroke-linecap="round" />
			</g>
			<g transform="matrix(1 0 0 1 -137.7061 -50.7392)">
				<path style="stroke: none; stroke-width: 1; stroke-dasharray: none; stroke-linecap: butt; stroke-dashoffset: 0; stroke-linejoin: miter; stroke-miterlimit: 4; is-custom-font: none; font-file-url: none; fill: rgb(47,46,65); fill-rule: nonzero; opacity: 1;" transform=" translate(-462.2939, -399.2608)" d="M 482.52588 408.8861 c -1.64651 -3.54181 0.96683 -7.49574 1.89938 -11.30855 c 1.74018 -7.1146 -3.16331 -14.81736 -9.80962 -17.28261 c -6.64631 -2.4652 -14.28416 -0.40478 -19.99351 3.90906 c -5.59677 4.22886 -9.5314 6.22108 -13.3867 12.19621 c -1.29281 2.00363 -2.66181 8.22463 -2.90642 10.6244 c -0.24467 2.39977 0.99679 5.14958 3.26039 5.67585 a 2.62352 2.62352 0 0 0 2.71168 3.78248 c 4.33253 -0.83677 12.29 1.46371 12.29 1.46371 q 11.12872 0.63705 22.25742 1.27414 c 1.901 0.10881 3.87371 0.20767 5.58177 -0.84257 a 3.79456 3.79456 0 0 0 1.81672 -2.6002 C 486.68109 412.96773 483.661 411.328 482.52588 408.8861 Z" stroke-linecap="round" />
			</g>
			<g transform="matrix(1 0 0 1 -142.987 27.5058)">
				<path style="stroke: none; stroke-width: 1; stroke-dasharray: none; stroke-linecap: butt; stroke-dashoffset: 0; stroke-linejoin: miter; stroke-miterlimit: 4; is-custom-font: none; font-file-url: none; fill: rgb(77,3,114); fill-rule: nonzero; opacity: 1;" transform=" translate(-457.013, -477.5058)" d="M 488.12836 439.87466 l -1.62343 10.806 l -2.57455 17.12088 l -0.43623 6.34345 l -3.20394 46.49244 l -8.824 6.78775 a 26.23318 26.23318 0 0 1 -34.85337 -2.55745 l -10.71525 -5.1588 c 5.74274 -5.64973 4.67481 -31.83289 4.67481 -31.83289 l -0.06439 -51.427 l 14.52486 -4.88454 l 4.78441 -9.41862 h 17.1638 l 4.29094 10.01221 l 7.78809 3.56147 l 3.54715 1.63058 Z" stroke-linecap="round" />
			</g>
			<g transform="matrix(1 0 0 1 -140.8919 -47.1966)">
				<circle style="stroke: none; stroke-width: 1; stroke-dasharray: none; stroke-linecap: butt; stroke-dashoffset: 0; stroke-linejoin: miter; stroke-miterlimit: 4; is-custom-font: none; font-file-url: none; fill: rgb(158,97,106); fill-rule: nonzero; opacity: 1;" cx="0" cy="0" r="14.51204" />
			</g>
			<g transform="matrix(1 0 0 1 -143.0672 -60.5329)">
				<path style="stroke: none; stroke-width: 1; stroke-dasharray: none; stroke-linecap: butt; stroke-dashoffset: 0; stroke-linejoin: miter; stroke-miterlimit: 4; is-custom-font: none; font-file-url: none; fill: rgb(47,46,65); fill-rule: nonzero; opacity: 1;" transform=" translate(-456.9328, -389.4671)" d="M 450.81689 398.25142 a 18.57141 18.57141 0 0 1 -10.71218 -3.37956 L 440 394.79852 v 0 a 14.11569 14.11569 0 0 1 14.1157 -14.11569 h 5.762 a 14.00375 14.00375 0 0 1 13.98783 14.04928 a 3.22582 3.22582 0 0 1 -3.18531 3.17973 l -19.5323 0.33671 C 451.03761 398.25046 450.92689 398.25142 450.81689 398.25142 Z" stroke-linecap="round" />
			</g>
			<g transform="matrix(1 0 0 1 -122.0798 45.0972)">
				<path style="stroke: none; stroke-width: 1; stroke-dasharray: none; stroke-linecap: butt; stroke-dashoffset: 0; stroke-linejoin: miter; stroke-miterlimit: 4; is-custom-font: none; font-file-url: none; fill: rgb(158,97,106); fill-rule: nonzero; opacity: 1;" transform=" translate(-477.9201, -495.0972)" d="M 493.2965 469.709 l -13.14518 0.10755 l -0.966 23.39694 l -10.68045 13.07573 a 7.1476 7.1476 0 1 0 8.2547 8.11209 l 14.71317 -20.39614 Z" stroke-linecap="round" />
			</g>
			<g transform="matrix(1 0 0 1 -203.4906 32.0451)">
				<path style="stroke: none; stroke-width: 1; stroke-dasharray: none; stroke-linecap: butt; stroke-dashoffset: 0; stroke-linejoin: miter; stroke-miterlimit: 4; is-custom-font: none; font-file-url: none; fill: rgb(158,97,106); fill-rule: nonzero; opacity: 1;" transform=" translate(-396.5094, -482.0451)" d="M 423.98494 470.40826 l -13.47505 -6.29906 l -14.71415 18.21658 l -16.368 4.13956 a 7.1476 7.1476 0 1 0 1.79743 11.43308 l 23.968 -7.6168 Z" stroke-linecap="round" />
			</g>
			<g transform="matrix(1 0 0 1 -126.4221 -46.4798)">
				<path style="stroke: none; stroke-width: 1; stroke-dasharray: none; stroke-linecap: butt; stroke-dashoffset: 0; stroke-linejoin: miter; stroke-miterlimit: 4; is-custom-font: none; font-file-url: none; fill: rgb(47,46,65); fill-rule: nonzero; opacity: 1;" transform=" translate(-473.578, -403.5202)" d="M 466.3694 416.19566 l 5.02437 -6.26819 a 3.62748 3.62748 0 0 0 1.00808 -2.021 c 0.0264 -0.76629 -0.69562 -1.58654 -1.42379 -1.34641 c -0.67567 0.22282 -4.56976 -9.53334 -5.28122 -9.53133 c -0.73753 0.00208 -0.97828 -0.98115 -0.98761 -1.71863 c -0.03538 -2.79449 2.23615 0.20624 2.98705 -2.4857 s 3.67826 -0.37742 6.20116 -1.57966 s 5.95087 -0.65616 7.51049 1.66289 c 1.15638 1.71945 1.11353 3.95352 0.96013 6.02 a 94.53164 94.53164 0 0 1 -2.15825 14.242 c -0.26549 1.151 -0.66059 2.43716 -1.72127 2.957 a 4.09929 4.09929 0 0 1 -1.83886 0.27478 l -7.73594 -0.03814" stroke-linecap="round" />
			</g>
			<g transform="matrix(1 0 0 1 -121.5763 -67.9029)">
				<circle style="stroke: none; stroke-width: 1; stroke-dasharray: none; stroke-linecap: butt; stroke-dashoffset: 0; stroke-linejoin: miter; stroke-miterlimit: 4; is-custom-font: none; font-file-url: none; fill: rgb(47,46,65); fill-rule: nonzero; opacity: 1;" cx="0" cy="0" r="7.15158" />
			</g>
			<g transform="matrix(1 0 0 1 -114.7662 6.2071)">
				<path style="stroke: none; stroke-width: 1; stroke-dasharray: none; stroke-linecap: butt; stroke-dashoffset: 0; stroke-linejoin: miter; stroke-miterlimit: 4; is-custom-font: none; font-file-url: none; fill: rgb(77,3,114); fill-rule: nonzero; opacity: 1;" transform=" translate(-485.2338, -456.2071)" d="M 494.50755 469.48222 c -0.77238 1.3445 -2.41723 1.88087 -3.919 2.29563 c -2.03107 0.565 -2.62462 1.13712 -4.65568 1.70208 c -0.80814 0.22886 -1.62343 0.45771 -2.43867 0.66509 a 34.49973 34.49973 0 0 1 -4.06926 0.83677 c -1.15143 0.16447 -2.51021 0.16447 -3.26112 -0.72948 a 3.75843 3.75843 0 0 1 -0.565 -2.596 q 0.43986 -16.47723 0.88679 -32.9545 l 0.62218 0.21458 a 8.096 8.096 0 0 1 0.87252 -0.50062 a 9.79447 9.79447 0 0 1 4.627 -1.06558 a 9.40619 9.40619 0 0 1 2.71048 0.42192 a 9.84537 9.84537 0 0 1 6.10743 5.59254 a 17.19688 17.19688 0 0 1 1.00124 6.21473 c 0.00716 0.32183 0.00716 0.64366 0.01428 0.96545 c 0.0429 2.74622 -1.35162 5.49245 -1.30871 8.23863 a 6.45467 6.45467 0 0 0 0.31467 2.28136 c 0.286 0.72947 0.84388 1.33734 1.05842 2.09541 c 0.21454 0.7509 -0.13588 1.78073 -0.91542 1.838 a 3.00109 3.00109 0 0 1 2.91785 4.484 Z" stroke-linecap="round" />
			</g>
			<g transform="matrix(1 0 0 1 -175.7636 4.5026)">
				<path style="stroke: none; stroke-width: 1; stroke-dasharray: none; stroke-linecap: butt; stroke-dashoffset: 0; stroke-linejoin: miter; stroke-miterlimit: 4; is-custom-font: none; font-file-url: none; fill: rgb(77,3,114); fill-rule: nonzero; opacity: 1;" transform=" translate(-424.2364, -454.5025)" d="M 430.568 436.51119 a 9.73434 9.73434 0 0 1 8.851 12.10948 a 19.54668 19.54668 0 0 1 -3.46454 6.36774 l -4.80671 6.69 a 6.40532 6.40532 0 0 0 -1.10734 2.01581 c -0.20222 0.75862 -0.12235 1.581 -0.39934 2.31557 s -1.16906 1.35076 -1.83158 0.9295 a 3.00429 3.00429 0 0 1 -0.32282 5.34231 c -1.42629 0.62243 -3.0647 0.067 -4.5181 -0.48916 l -5.90281 -2.259 a 48.96534 48.96534 0 0 1 -6.12273 -2.66857 c -1.02175 -0.561 -2.11229 -1.36861 -2.185 -2.53195 c -0.05659 -0.90551 0.70919 -1.60112 1.09314 -2.42315 c 4.80737 -10.2924 11.87654 -18.48208 20.65695 -25.4607 Z" stroke-linecap="round" />
			</g>
			<g transform="matrix(1 0 0 1 0 263.4239)">
				<path style="stroke: none; stroke-width: 1; stroke-dasharray: none; stroke-linecap: butt; stroke-dashoffset: 0; stroke-linejoin: miter; stroke-miterlimit: 4; is-custom-font: none; font-file-url: none; fill: rgb(0,8,34); fill-rule: nonzero; opacity: 1;" transform=" translate(-600, -713.424)" d="M 921.375 714.461 l -642.75 0.30733 a 1.19069 1.19069 0 0 1 0 -2.38137 l 642.75 -0.30733 a 1.19069 1.19069 0 0 1 0 2.38137 Z" stroke-linecap="round" />
			</g>
		</g>
	</g>
	<g transform="matrix(0.1518 0 0 0.1518 128.4438 333.6676)" id="545394">
		<g style="" vector-effect="non-scaling-stroke">
			<g transform="matrix(3.7796 0 0 3.7796 -184.5142 0.0046)">
				<path style="stroke: none; stroke-width: 1; stroke-dasharray: none; stroke-linecap: butt; stroke-dashoffset: 0; stroke-linejoin: miter; stroke-miterlimit: 4; is-custom-font: none; font-file-url: none; fill: rgb(169,4,223); fill-rule: nonzero; opacity: 1;" transform=" translate(187.7489, -46.953)" d="m -175.67 61.464 h -6.0157 l -5.8658 -22.328 l -5.9304 22.328 h -6.1486 l -8.0653 -29.022 h 5.4563 l 5.8161 23.085 l 6.3496 -23.085 h 5.5112 l 5.9683 23.222 l 5.5238 -23.222 h 5.2685 z" stroke-linecap="round" />
			</g>
			<g transform="matrix(3.7796 0 0 3.7796 -91.0178 -1.2919)">
				<path style="stroke: none; stroke-width: 1; stroke-dasharray: none; stroke-linecap: butt; stroke-dashoffset: 0; stroke-linejoin: miter; stroke-miterlimit: 4; is-custom-font: none; font-file-url: none; fill: rgb(169,4,223); fill-rule: nonzero; opacity: 1;" transform=" translate(163.0115, -46.61)" d="m -160.09 34.565 c 0 0.7846 -0.28906 1.4384 -0.86717 1.9615 c -0.56435 0.52306 -1.2526 0.78459 -2.0647 0.78459 c -0.81212 0 -1.5004 -0.26156 -2.0647 -0.78459 c -0.56435 -0.52307 -0.84652 -1.1769 -0.84652 -1.9615 c 0 -0.79834 0.28217 -1.4659 0.84652 -2.0028 c 0.57812 -0.53682 1.2664 -0.80524 2.0647 -0.80524 c 0.83965 0 1.5348 0.27534 2.0854 0.82588 c 0.56434 0.55062 0.84652 1.2113 0.84652 1.9821 z m -5.442 26.898 v -20.915 h 4.876 v 20.915 z" stroke-linecap="round" />
			</g>
			<g transform="matrix(3.7796 0 0 3.7796 -27.9682 14.6575)">
				<path style="stroke: none; stroke-width: 1; stroke-dasharray: none; stroke-linecap: butt; stroke-dashoffset: 0; stroke-linejoin: miter; stroke-miterlimit: 4; is-custom-font: none; font-file-url: none; fill: rgb(169,4,223); fill-rule: nonzero; opacity: 1;" transform=" translate(146.3299, -50.8299)" d="m -141.89 61.464 v -11.645 c 0 -3.0511 -0.94643 -5.6831 -4.0201 -5.6831 c -3.0577 0 -4.9966 2.7533 -4.9966 5.5386 v 11.789 h -4.7695 v -20.915 h 4.7695 v 2.9584 h 0.0826 c 1.5829 -2.4506 3.8679 -3.3111 6.8548 -3.3111 c 2.2436 0 3.978 0.55225 5.203 1.9838 c 1.2388 1.4315 1.7827 3.6063 1.7827 6.5245 v 12.759 z" stroke-linecap="round" />
			</g>
			<g transform="matrix(3.7796 0 0 3.7796 59.2091 -2.6007)">
				<path style="stroke: none; stroke-width: 1; stroke-dasharray: none; stroke-linecap: butt; stroke-dashoffset: 0; stroke-linejoin: miter; stroke-miterlimit: 4; is-custom-font: none; font-file-url: none; fill: rgb(169,4,223); fill-rule: nonzero; opacity: 1;" transform=" translate(123.2645, -46.2637)" d="m -117.94 61.464 v -2.6924 h -0.0826 c -1.5141 2.5465 -4.6048 3.1336 -6.7596 3.1336 c -6.4042 0 -8.7543 -4.9749 -8.7543 -10.269 c 0 -3.51 0.87406 -6.318 2.6222 -8.424 c 1.7619 -2.1198 4.1156 -3.0373 7.0613 -3.0373 c 4.5855 0 5.8305 2.5513 5.8305 2.5513 h 0.0826 v -12.104 h 4.9473 v 30.842 z m 0.0413 -11.918 c 0 -2.5265 -1.6236 -5.397 -5.0504 -5.397 c -3.92 0 -5.4434 3.4113 -5.4434 7.343 c 0 3.4326 1.4375 6.548 5.1705 6.5997 c 3.6604 0 5.2936 -3.4887 5.3233 -6.3726 z" stroke-linecap="round" />
			</g>
			<g transform="matrix(3.7796 0 0 3.7796 151.6841 15.6368)">
				<path style="stroke: none; stroke-width: 1; stroke-dasharray: none; stroke-linecap: butt; stroke-dashoffset: 0; stroke-linejoin: miter; stroke-miterlimit: 4; is-custom-font: none; font-file-url: none; fill: rgb(169,4,223); fill-rule: nonzero; opacity: 1;" transform=" translate(98.7975, -51.089)" d="m -88.034 50.914 c 0 7.2446 -4.3298 11.169 -10.832 11.169 c -7.0707 0 -10.695 -4.2328 -10.695 -10.715 c 0 -7.4157 4.3429 -11.273 11.211 -11.273 c 6.2932 0 10.316 4.0228 10.316 10.819 z m -5.0794 0.1651 c 0 -3.2231 -1.1425 -6.8059 -5.5051 -6.8059 c -4.1842 0 -5.8097 3.1138 -5.8097 6.9298 c 0 4.1456 1.9524 6.7824 5.7799 6.7824 c 4.1005 0 5.5051 -3.1471 5.535 -6.9063 z" stroke-linecap="round" />
			</g>
			<g transform="matrix(3.7796 0 0 3.7796 254.9513 15.4459)">
				<path style="stroke: none; stroke-width: 1; stroke-dasharray: none; stroke-linecap: butt; stroke-dashoffset: 0; stroke-linejoin: miter; stroke-miterlimit: 4; is-custom-font: none; font-file-url: none; fill: rgb(169,4,223); fill-rule: nonzero; opacity: 1;" transform=" translate(71.4751, -51.0385)" d="m -61.864 61.464 h -5.3811 l -4.1133 -15.137 l -4.4127 15.137 h -5.223 l -6.0846 -20.851 h 5.1062 l 3.9735 16.199 l 4.6441 -16.199 h 4.7894 l 4.1408 16.157 l 3.8735 -16.157 h 4.6797 z" stroke-linecap="round" />
			</g>
			<g transform="matrix(3.7796 0 0 3.7796 345.2968 15.7193)">
				<path style="stroke: none; stroke-width: 1; stroke-dasharray: none; stroke-linecap: butt; stroke-dashoffset: 0; stroke-linejoin: miter; stroke-miterlimit: 4; is-custom-font: none; font-file-url: none; fill: rgb(169,4,223); fill-rule: nonzero; opacity: 1;" transform=" translate(47.5714, -51.1108)" d="m -40.555 55.642 c 0 4.6565 -4.2225 6.4714 -8.4554 6.4714 c -2.7569 0 -5.5019 -1.0619 -5.5019 -1.0619 v -4.9529 s 2.3861 2.0793 5.7192 2.1052 c 2.2849 0 3.3142 -0.72057 3.3142 -2.0924 c 0.05644 -1.1006 -0.61364 -1.7075 -1.4147 -2.1625 c -0.55059 -0.33035 -1.4109 -0.73641 -2.5809 -1.2182 c -1.3765 -0.59187 -2.4019 -1.1631 -3.0764 -1.7137 c -0.6607 -0.55058 -1.1562 -1.1975 -1.4866 -1.9408 c -0.31658 -0.74329 -0.55035 -1.5601 -0.55035 -2.5512 c 0 -3.76 3.1359 -6.4167 8.1485 -6.4167 c 3.313 0 4.7488 0.81239 4.7488 0.81239 v 4.7052 s -2.3545 -1.6272 -4.8008 -1.642 c -1.7529 0 -3.0784 0.6382 -3.1016 2.0825 c -0.01235 1.8616 2.2673 2.769 3.6284 3.3197 c 1.9821 0.79835 3.4326 1.6506 4.2447 2.6279 c 0.81212 0.9773 1.1648 1.9614 1.1648 3.6282 z" stroke-linecap="round" />
			</g>
			<g transform="matrix(3.7796 0 0 3.7796 423.3638 -1.5942)">
				<path style="stroke: none; stroke-width: 1; stroke-dasharray: none; stroke-linecap: butt; stroke-dashoffset: 0; stroke-linejoin: miter; stroke-miterlimit: 4; is-custom-font: none; font-file-url: none; fill: rgb(169,4,223); fill-rule: nonzero; opacity: 1;" transform=" translate(26.9164, -46.53)" d="m -21.371 31.596 v 29.868 h -4.9894 v -23.825 s -1.7107 1.5803 -6.1015 2.7254 v -4.2516 c 6.5257 -2.4134 8.8682 -4.5165 8.8682 -4.5165 z" stroke-linecap="round" />
			</g>
			<g transform="matrix(3.7796 0 0 3.7796 -456.3362 -48.4554)">
				<rect style="stroke: none; stroke-width: 1; stroke-dasharray: none; stroke-linecap: butt; stroke-dashoffset: 0; stroke-linejoin: miter; stroke-miterlimit: 4; is-custom-font: none; font-file-url: none; fill: rgb(169,4,223); fill-rule: nonzero; opacity: 1;" x="-11.5525" y="-11.5525" rx="0" ry="0" width="23.105" height="23.105" />
			</g>
			<g transform="matrix(3.7796 0 0 3.7796 -359.4279 -48.4554)">
				<rect style="stroke: none; stroke-width: 1; stroke-dasharray: none; stroke-linecap: butt; stroke-dashoffset: 0; stroke-linejoin: miter; stroke-miterlimit: 4; is-custom-font: none; font-file-url: none; fill: rgb(169,4,223); fill-rule: nonzero; opacity: 1;" x="-11.5525" y="-11.5525" rx="0" ry="0" width="23.105" height="23.105" />
			</g>
			<g transform="matrix(3.7796 0 0 3.7796 -456.3362 48.4605)">
				<rect style="stroke: none; stroke-width: 1; stroke-dasharray: none; stroke-linecap: butt; stroke-dashoffset: 0; stroke-linejoin: miter; stroke-miterlimit: 4; is-custom-font: none; font-file-url: none; fill: rgb(169,4,223); fill-rule: nonzero; opacity: 1;" x="-11.5525" y="-11.5525" rx="0" ry="0" width="23.105" height="23.105" />
			</g>
			<g transform="matrix(3.7796 0 0 3.7796 -359.4279 48.4605)">
				<rect style="stroke: none; stroke-width: 1; stroke-dasharray: none; stroke-linecap: butt; stroke-dashoffset: 0; stroke-linejoin: miter; stroke-miterlimit: 4; is-custom-font: none; font-file-url: none; fill: rgb(169,4,223); fill-rule: nonzero; opacity: 1;" x="-11.5525" y="-11.5525" rx="0" ry="0" width="23.105" height="23.105" />
			</g>
			<g transform="matrix(3.7796 0 0 3.7796 479.0528 -1.5942)">
				<path style="stroke: none; stroke-width: 1; stroke-dasharray: none; stroke-linecap: butt; stroke-dashoffset: 0; stroke-linejoin: miter; stroke-miterlimit: 4; is-custom-font: none; font-file-url: none; fill: rgb(169,4,223); fill-rule: nonzero; opacity: 1;" transform=" translate(12.1822, -46.53)" d="m -6.6368 31.596 v 29.868 h -4.9894 v -23.825 s -1.7107 1.5803 -6.1015 2.7254 v -4.2516 c 6.5257 -2.4134 8.8682 -4.5165 8.8682 -4.5165 z" stroke-linecap="round" />
			</g>
		</g>
	</g>
	<g transform="matrix(0.5668 0 0 0.5668 150.3636 182.6669)" id="918725">
		<g style="" vector-effect="non-scaling-stroke">
			<g transform="matrix(1.3333 0 0 1.3333 7.705 2.2575)" id="surface1" clip-path="url(#CLIPPATH_22)">
				<clipPath id="CLIPPATH_22">
					<path transform="matrix(1 0 0 1 -0.2812 -0.1961) translate(-124.4004, -91.4492)" id="clip1" d="M 11 3 L 237.800781 3 L 237.800781 179.898438 L 11 179.898438 Z M 11 3" stroke-linecap="round" />
				</clipPath>
				<path style="stroke: none; stroke-width: 1; stroke-dasharray: none; stroke-linecap: butt; stroke-dashoffset: 0; stroke-linejoin: miter; stroke-miterlimit: 4; is-custom-font: none; font-file-url: none; fill: rgb(169,4,223); fill-rule: evenodd; opacity: 1;" transform=" translate(-124.6816, -91.6453)" d="M 11.640625 3.71875 C 11.640625 3.71875 92.761719 -0.00390625 128.402344 18.476563 C 128.402344 18.476563 120.722656 41.757813 144.242188 46.921875 L 154.679688 46.921875 C 154.679688 46.921875 167.519531 49.679688 174.359375 53.519531 L 174.359375 51.117188 C 174.359375 51.117188 176.28125 54.960938 182.28125 56.757813 L 181.800781 53.636719 C 181.800781 53.636719 187.082031 59.757813 190.679688 61.078125 L 189.960938 56.878906 C 189.960938 56.878906 196.441406 63.839844 197.882813 64.679688 L 202.320313 64.4375 C 202.320313 64.4375 205.320313 69.003906 207.242188 71.878906 C 207.242188 71.878906 209.882813 74.699219 208.203125 75.003906 C 208.203125 75.003906 207.421875 75.058594 208.441406 75.898438 C 208.441406 75.898438 213.179688 81.238281 219.839844 81.960938 C 219.839844 81.960938 213.960938 85.976563 213.542969 87.003906 C 213.542969 87.003906 207.78125 80.21875 200.28125 76.976563 C 200.28125 76.976563 194.222656 74.578125 194.042969 71.757813 L 193.921875 68.398438 C 193.921875 68.398438 169.800781 56.519531 156.902344 53.996094 C 156.902344 53.996094 146.28125 52.617188 140.882813 54.660156 C 140.882813 54.660156 121.960938 60.4375 121.722656 82.039063 C 121.722656 82.039063 121.882813 105.476563 146.28125 108.277344 C 146.28125 108.277344 160.761719 108.996094 164.359375 109.15625 C 164.359375 109.15625 227.761719 110.519531 237.722656 153.117188 C 237.722656 153.117188 228.480469 124.4375 191.042969 118.558594 C 191.042969 118.558594 227.042969 142.082031 227.042969 179.878906 C 227.042969 179.878906 218.761719 119.398438 164.042969 115.4375 C 164.042969 115.4375 149.882813 115.203125 146.042969 115.082031 C 146.042969 115.082031 117.839844 114.117188 114.960938 86.160156 C 114.960938 86.160156 112.320313 59.757813 133.5625 50.519531 C 133.5625 50.519531 124.5625 32.15625 123.722656 22.316406 C 123.722656 22.316406 97.5625 7.316406 11.640625 3.71875 Z M 11.640625 3.71875" stroke-linecap="round" />
			</g>
			<g transform="matrix(0.1333 0 0 -0.1333 7.6711 2.231)" id="surface1" clip-path="url(#CLIPPATH_23)">
				<clipPath id="CLIPPATH_23">
					<path transform="matrix(10 0 0 -10 -7.8125 6.961) translate(-123.9004, -90.9492)" id="clip2" d="M 10 2 L 237.800781 2 L 237.800781 179.898438 L 10 179.898438 Z M 10 2" stroke-linecap="round" />
				</clipPath>
				<path style="stroke: rgb(169,4,223); stroke-width: 2.16; stroke-dasharray: none; stroke-linecap: butt; stroke-dashoffset: 0; stroke-linejoin: miter; stroke-miterlimit: 4; is-custom-font: none; font-file-url: none; fill: none; fill-rule: nonzero; opacity: 1;" transform=" translate(-1246.8164, -882.5468)" d="M 116.40625 1761.8125 C 116.40625 1761.8125 927.617188 1799.039063 1284.023438 1614.234375 C 1284.023438 1614.234375 1207.226563 1381.421875 1442.421875 1329.78125 L 1546.796875 1329.78125 C 1546.796875 1329.78125 1675.195313 1302.203125 1743.59375 1263.804688 L 1743.59375 1287.828125 C 1743.59375 1287.828125 1762.8125 1249.390625 1822.8125 1231.421875 L 1818.007813 1262.632813 C 1818.007813 1262.632813 1870.820313 1201.421875 1906.796875 1188.21875 L 1899.609375 1230.210938 C 1899.609375 1230.210938 1964.414063 1160.601563 1978.828125 1152.203125 L 2023.203125 1154.625 C 2023.203125 1154.625 2053.203125 1108.960938 2072.421875 1080.210938 C 2072.421875 1080.210938 2098.828125 1052.007813 2082.03125 1048.960938 C 2082.03125 1048.960938 2074.21875 1048.414063 2084.414063 1040.015625 C 2084.414063 1040.015625 2131.796875 986.617188 2198.398438 979.390625 C 2198.398438 979.390625 2139.609375 939.234375 2135.429688 928.960938 C 2135.429688 928.960938 2077.8125 996.8125 2002.8125 1029.234375 C 2002.8125 1029.234375 1942.226563 1053.21875 1940.429688 1081.421875 L 1939.21875 1115.015625 C 1939.21875 1115.015625 1698.007813 1233.804688 1569.023438 1259.039063 C 1569.023438 1259.039063 1462.8125 1272.828125 1408.828125 1252.398438 C 1408.828125 1252.398438 1219.609375 1194.625 1217.226563 978.609375 C 1217.226563 978.609375 1218.828125 744.234375 1462.8125 716.226563 C 1462.8125 716.226563 1607.617188 709.039063 1643.59375 707.4375 C 1643.59375 707.4375 2277.617188 693.804688 2377.226563 267.828125 C 2377.226563 267.828125 2284.804688 554.625 1910.429688 613.414063 C 1910.429688 613.414063 2270.429688 378.179688 2270.429688 0.210938 C 2270.429688 0.210938 2187.617188 605.015625 1640.429688 644.625 C 1640.429688 644.625 1498.828125 646.96875 1460.429688 648.179688 C 1460.429688 648.179688 1178.398438 657.828125 1149.609375 937.398438 C 1149.609375 937.398438 1123.203125 1201.421875 1335.625 1293.804688 C 1335.625 1293.804688 1245.625 1477.4375 1237.226563 1575.835938 C 1237.226563 1575.835938 975.625 1725.835938 116.40625 1761.8125 Z M 116.40625 1761.8125" stroke-linecap="round" />
			</g>
			<g transform="matrix(0.1333 0 0 -0.1333 -75.9134 -80.7747)" id="surface1">
				<path style="stroke: rgb(169,4,223); stroke-width: 2.16; stroke-dasharray: none; stroke-linecap: butt; stroke-dashoffset: 0; stroke-linejoin: miter; stroke-miterlimit: 4; is-custom-font: none; font-file-url: none; fill: rgb(169,4,223); fill-rule: evenodd; opacity: 1;" transform=" translate(-619.8047, -1505.2958)" d="M 1.210938 1447.4375 C 1.210938 1447.4375 597.617188 1589.039063 1227.617188 1558.960938 L 1238.398438 1515.835938 C 1238.398438 1515.835938 682.8125 1560.210938 1.210938 1447.4375 Z M 1.210938 1447.4375" stroke-linecap="round" />
			</g>
			<g transform="matrix(0.1333 0 0 -0.1333 -62.2283 -53.2208)" id="surface1">
				<path style="stroke: rgb(169,4,223); stroke-width: 2.16; stroke-dasharray: none; stroke-linecap: butt; stroke-dashoffset: 0; stroke-linejoin: miter; stroke-miterlimit: 4; is-custom-font: none; font-file-url: none; fill: rgb(169,4,223); fill-rule: evenodd; opacity: 1;" transform=" translate(-722.4219, -1298.6094)" d="M 1258.828125 1436.617188 L 1244.414063 1483.414063 C 1244.414063 1483.414063 735.625 1454.625 186.015625 1113.804688 C 186.015625 1113.804688 759.609375 1436.617188 1258.828125 1436.617188 Z M 1258.828125 1436.617188" stroke-linecap="round" />
			</g>
			<g transform="matrix(0.1333 0 0 -0.1333 114.0678 -24.0928)" id="surface1">
				<path style="stroke: rgb(255,255,255); stroke-width: 2.16; stroke-dasharray: none; stroke-linecap: butt; stroke-dashoffset: 0; stroke-linejoin: miter; stroke-miterlimit: 4; is-custom-font: none; font-file-url: none; fill: rgb(255,255,255); fill-rule: evenodd; opacity: 1;" transform=" translate(-2044.5117, -1080.1914)" d="M 2032.226563 1096.421875 L 2031.601563 1083.21875 C 2031.601563 1083.21875 2044.21875 1068.804688 2057.421875 1063.960938 C 2057.421875 1063.960938 2038.203125 1093.414063 2032.226563 1096.421875 Z M 2032.226563 1096.421875" stroke-linecap="round" />
			</g>
		</g>
	</g>
	<g transform="matrix(1.8263 0 0 1.8263 290.2254 396.8855)" id="335481">
		<path style="stroke: none; stroke-width: 1; stroke-dasharray: none; stroke-linecap: butt; stroke-dashoffset: 0; stroke-linejoin: miter; stroke-miterlimit: 4; is-custom-font: none; font-file-url: none; fill: rgb(169,4,223); fill-rule: nonzero; opacity: 1;" vector-effect="non-scaling-stroke" transform=" translate(-21, -21)" d="m 23.091 14.018 v -0.342 l -1.063 0.073 c -0.301 0.019 -0.527 0.083 -0.679 0.191 c -0.152 0.109 -0.228 0.26 -0.228 0.453 c 0 0.188 0.075 0.338 0.226 0.449 c 0.15 0.112 0.352 0.167 0.604 0.167 c 0.161 0 0.312 -0.025 0.451 -0.074 s 0.261 -0.118 0.363 -0.206 c 0.102 -0.087 0.182 -0.191 0.239 -0.312 c 0.058 -0.121 0.087 -0.254 0.087 -0.399 z m -2.091 -13.768 c -11.579 0 -20.75 9.171 -20.75 20.75 c 0 11.58 9.171 20.75 20.75 20.75 s 20.75 -9.17 20.75 -20.75 c 0 -11.579 -9.17 -20.75 -20.75 -20.75 z m 4.028 12.299 c 0.098 -0.275 0.236 -0.511 0.415 -0.707 s 0.394 -0.347 0.646 -0.453 s 0.533 -0.159 0.842 -0.159 c 0.279 0 0.531 0.042 0.755 0.125 c 0.225 0.083 0.417 0.195 0.578 0.336 s 0.289 0.305 0.383 0.493 s 0.15 0.387 0.169 0.596 h -0.833 c -0.021 -0.115 -0.059 -0.223 -0.113 -0.322 s -0.125 -0.185 -0.213 -0.258 c -0.089 -0.073 -0.193 -0.13 -0.312 -0.171 c -0.12 -0.042 -0.254 -0.062 -0.405 -0.062 c -0.177 0 -0.338 0.036 -0.481 0.107 c -0.144 0.071 -0.267 0.172 -0.369 0.302 s -0.181 0.289 -0.237 0.475 c -0.057 0.187 -0.085 0.394 -0.085 0.622 c 0 0.236 0.028 0.448 0.085 0.634 c 0.056 0.187 0.136 0.344 0.24 0.473 c 0.103 0.129 0.228 0.228 0.373 0.296 s 0.305 0.103 0.479 0.103 c 0.285 0 0.517 -0.067 0.697 -0.201 s 0.296 -0.33 0.35 -0.588 h 0.834 c -0.024 0.228 -0.087 0.436 -0.189 0.624 s -0.234 0.348 -0.396 0.481 c -0.163 0.133 -0.354 0.236 -0.574 0.308 s -0.462 0.109 -0.725 0.109 c -0.312 0 -0.593 -0.052 -0.846 -0.155 c -0.252 -0.103 -0.469 -0.252 -0.649 -0.445 s -0.319 -0.428 -0.417 -0.705 s -0.147 -0.588 -0.147 -0.935 c -0.002 -0.339 0.047 -0.647 0.145 -0.923 z m -11.853 -1.262 h 0.834 v 0.741 h 0.016 c 0.051 -0.123 0.118 -0.234 0.2 -0.33 c 0.082 -0.097 0.176 -0.179 0.284 -0.248 c 0.107 -0.069 0.226 -0.121 0.354 -0.157 c 0.129 -0.036 0.265 -0.054 0.407 -0.054 c 0.306 0 0.565 0.073 0.775 0.219 c 0.211 0.146 0.361 0.356 0.449 0.63 h 0.021 c 0.056 -0.132 0.13 -0.25 0.221 -0.354 s 0.196 -0.194 0.314 -0.268 s 0.248 -0.13 0.389 -0.169 s 0.289 -0.058 0.445 -0.058 c 0.215 0 0.41 0.034 0.586 0.103 s 0.326 0.165 0.451 0.29 s 0.221 0.277 0.288 0.455 s 0.101 0.376 0.101 0.594 v 2.981 h -0.87 v -2.772 c 0 -0.287 -0.074 -0.51 -0.222 -0.667 c -0.147 -0.157 -0.358 -0.236 -0.632 -0.236 c -0.134 0 -0.257 0.024 -0.369 0.071 c -0.111 0.047 -0.208 0.113 -0.288 0.198 c -0.081 0.084 -0.144 0.186 -0.189 0.304 c -0.046 0.118 -0.069 0.247 -0.069 0.387 v 2.715 h -0.858 v -2.844 c 0 -0.126 -0.02 -0.24 -0.059 -0.342 s -0.094 -0.189 -0.167 -0.262 c -0.072 -0.073 -0.161 -0.128 -0.264 -0.167 c -0.104 -0.039 -0.22 -0.059 -0.349 -0.059 c -0.134 0 -0.258 0.025 -0.373 0.075 c -0.114 0.05 -0.212 0.119 -0.294 0.207 c -0.082 0.089 -0.146 0.193 -0.191 0.314 c -0.044 0.12 -0.116 0.252 -0.116 0.394 v 2.683 h -0.825 v -4.374 z m 1.893 20.939 c -3.825 0 -6.224 -2.658 -6.224 -6.9 s 2.399 -6.909 6.224 -6.909 s 6.215 2.667 6.215 6.909 c 0 4.241 -2.39 6.9 -6.215 6.9 z m 7.082 -16.575 c -0.141 0.036 -0.285 0.054 -0.433 0.054 c -0.218 0 -0.417 -0.031 -0.598 -0.093 c -0.182 -0.062 -0.337 -0.149 -0.467 -0.262 s -0.232 -0.249 -0.304 -0.409 c -0.073 -0.16 -0.109 -0.338 -0.109 -0.534 c 0 -0.384 0.143 -0.684 0.429 -0.9 s 0.7 -0.342 1.243 -0.377 l 1.18 -0.068 v -0.338 c 0 -0.252 -0.08 -0.445 -0.24 -0.576 s -0.386 -0.197 -0.679 -0.197 c -0.118 0 -0.229 0.015 -0.331 0.044 c -0.102 0.03 -0.192 0.072 -0.27 0.127 s -0.143 0.121 -0.193 0.198 c -0.051 0.076 -0.086 0.162 -0.105 0.256 h -0.818 c 0.005 -0.193 0.053 -0.372 0.143 -0.536 s 0.212 -0.306 0.367 -0.427 s 0.336 -0.215 0.546 -0.282 s 0.438 -0.101 0.685 -0.101 c 0.266 0 0.507 0.033 0.723 0.101 s 0.401 0.163 0.554 0.288 s 0.271 0.275 0.354 0.451 s 0.125 0.373 0.125 0.59 v 3.001 h -0.833 v -0.729 h -0.021 c -0.062 0.118 -0.14 0.225 -0.235 0.32 c -0.096 0.095 -0.203 0.177 -0.322 0.244 c -0.12 0.067 -0.25 0.119 -0.391 0.155 z m 5.503 16.575 c -2.917 0 -4.9 -1.528 -5.038 -3.927 h 1.899 c 0.148 1.371 1.473 2.279 3.288 2.279 c 1.741 0 2.992 -0.908 2.992 -2.149 c 0 -1.074 -0.76 -1.723 -2.519 -2.167 l -1.714 -0.426 c -2.464 -0.611 -3.584 -1.732 -3.584 -3.575 c 0 -2.269 1.982 -3.844 4.807 -3.844 c 2.76 0 4.686 1.584 4.76 3.862 h -1.88 c -0.13 -1.371 -1.25 -2.214 -2.918 -2.214 c -1.658 0 -2.806 0.852 -2.806 2.084 c 0 0.972 0.722 1.547 2.482 1.991 l 1.445 0.361 c 2.751 0.667 3.881 1.751 3.881 3.696 c -0.001 2.482 -1.964 4.029 -5.095 4.029 z m -12.585 -12.106 c -2.621 0 -4.26 2.01 -4.26 5.205 c 0 3.186 1.639 5.196 4.26 5.196 c 2.612 0 4.26 -2.01 4.26 -5.196 c 0.001 -3.195 -1.648 -5.205 -4.26 -5.205 z" stroke-linecap="round" />
	</g>
</svg>